<svg height="512pt" viewBox="-20 0 512 512" width="512pt" xmlns="http://www.w3.org/2000/svg"><path d="m311 0h-255c-8.285156 0-15 6.714844-15 15v482c0 8.285156 6.714844 15 15 15h360c8.285156 0 15-6.714844 15-15v-377zm0 0" fill="#e6f0f0"/><path d="m311 0h-75v512h180c8.285156 0 15-6.714844 15-15v-377zm0 0" fill="#cdd7d7"/><path d="m311 0v105c0 8.285156 6.714844 15 15 15h105zm0 0" fill="#46465a"/><path d="m457 442h-442c-8.285156 0-15-6.714844-15-15v-240c0-8.285156 6.714844-15 15-15h442c8.285156 0 15 6.714844 15 15v240c0 8.285156-6.714844 15-15 15zm0 0" fill="#feef55"/><path d="m457 172h-221v270h221c8.285156 0 15-6.714844 15-15v-240c0-8.285156-6.714844-15-15-15zm0 0" fill="#fedc00"/><path d="m139 262c8.269531 0 15 6.730469 15 15 0 8.285156 6.714844 15 15 15s15-6.714844 15-15c0-24.8125-20.1875-45-45-45s-45 20.1875-45 45v60c0 24.8125 20.1875 45 45 45s45-20.1875 45-45c0-8.285156-6.714844-15-15-15s-15 6.714844-15 15c0 8.269531-6.730469 15-15 15s-15-6.730469-15-15v-60c0-8.269531 6.730469-15 15-15zm0 0" fill="#5a5a6e"/><path d="m261 292h-10v-10c0-8.285156-6.714844-15-15-15s-15 6.714844-15 15v10h-10c-8.285156 0-15 6.714844-15 15s6.714844 15 15 15h10v10c0 8.285156 6.714844 15 15 15s15-6.714844 15-15v-10h10c8.285156 0 15-6.714844 15-15s-6.714844-15-15-15zm0 0" fill="#5a5a6e"/><g fill="#46465a"><path d="m251 332v-10h10c8.285156 0 15-6.714844 15-15s-6.714844-15-15-15h-10v-10c0-8.285156-6.714844-15-15-15v80c8.285156 0 15-6.714844 15-15zm0 0"/><path d="m361 292h-10v-10c0-8.285156-6.714844-15-15-15s-15 6.714844-15 15v10h-10c-8.285156 0-15 6.714844-15 15s6.714844 15 15 15h10v10c0 8.285156 6.714844 15 15 15s15-6.714844 15-15v-10h10c8.285156 0 15-6.714844 15-15s-6.714844-15-15-15zm0 0"/></g></svg>