<?xml version="1.0" standalone="no"?>
<!DOCTYPE svg PUBLIC "-//W3C//DTD SVG 20010904//EN"
 "http://www.w3.org/TR/2001/REC-SVG-20010904/DTD/svg10.dtd">
<svg version="1.0" xmlns="http://www.w3.org/2000/svg"
 width="2023.000000pt" height="2023.000000pt" viewBox="0 0 2023.000000 2023.000000"
 preserveAspectRatio="xMidYMid meet">

<g transform="translate(0.000000,2023.000000) scale(0.100000,-0.100000)"
fill="#000000" stroke="none">
<path d="M5890 19865 c0 -23 -3 -25 -50 -25 -47 0 -50 -2 -50 -25 0 -20 -5
-25 -25 -25 -20 0 -25 -5 -25 -25 0 -20 -5 -25 -25 -25 -23 0 -25 -3 -25 -50
0 -47 -2 -50 -25 -50 -20 0 -25 -5 -25 -25 0 -20 -5 -25 -25 -25 -20 0 -25 -5
-25 -25 l0 -25 -100 0 -100 0 0 -25 0 -25 -100 0 -100 0 0 -25 c0 -24 -2 -25
-75 -25 -73 0 -75 -1 -75 -25 0 -20 -5 -25 -25 -25 -20 0 -25 -5 -25 -25 0
-20 -5 -25 -25 -25 -20 0 -25 -5 -25 -25 0 -20 -5 -25 -25 -25 -20 0 -25 -5
-25 -25 0 -20 -5 -25 -25 -25 -20 0 -25 -5 -25 -25 0 -23 -3 -25 -50 -25 -47
0 -50 -2 -50 -25 0 -20 -5 -25 -25 -25 -20 0 -25 -5 -25 -25 0 -24 -2 -25 -75
-25 -73 0 -75 -1 -75 -25 0 -23 -3 -25 -50 -25 -47 0 -50 -2 -50 -25 0 -20 -5
-25 -25 -25 -20 0 -25 -5 -25 -25 0 -23 -3 -25 -50 -25 -47 0 -50 -2 -50 -25
0 -20 -5 -25 -25 -25 -23 0 -25 -3 -25 -50 0 -47 -2 -50 -25 -50 -23 0 -25 -3
-25 -50 0 -47 -2 -50 -25 -50 -23 0 -25 -3 -25 -50 0 -47 -2 -50 -25 -50 -20
0 -25 -5 -25 -25 0 -20 -5 -25 -25 -25 -23 0 -25 -3 -25 -50 0 -47 -2 -50 -25
-50 l-25 0 0 -200 0 -200 -25 0 c-20 0 -25 -5 -25 -25 0 -20 -5 -25 -25 -25
-23 0 -25 -3 -25 -50 0 -47 -2 -50 -25 -50 -20 0 -25 -5 -25 -25 0 -20 -5 -25
-25 -25 -20 0 -25 -5 -25 -25 0 -20 -5 -25 -25 -25 -20 0 -25 -5 -25 -25 0
-20 -5 -25 -25 -25 -24 0 -25 -2 -25 -75 0 -73 -1 -75 -25 -75 -24 0 -25 -2
-25 -75 0 -73 -1 -75 -25 -75 l-25 0 0 -125 0 -125 25 0 25 0 0 -100 0 -100
-25 0 c-20 0 -25 -5 -25 -25 0 -20 -5 -25 -25 -25 -20 0 -25 -5 -25 -25 0 -23
-3 -25 -50 -25 l-50 0 0 -75 c0 -73 -1 -75 -25 -75 -23 0 -25 -3 -25 -50 0
-47 -2 -50 -25 -50 -20 0 -25 -5 -25 -25 0 -20 -5 -25 -25 -25 l-25 0 0 -150
0 -150 25 0 c23 0 25 -3 25 -50 0 -47 2 -50 25 -50 l25 0 0 -225 0 -225 -25 0
-25 0 0 -300 0 -300 25 0 c24 0 25 -2 25 -75 0 -73 1 -75 25 -75 l25 0 0 -100
0 -100 25 0 c24 0 25 -2 25 -75 0 -73 -1 -75 -25 -75 l-25 0 0 -175 0 -175
-25 0 -25 0 0 -250 0 -250 -25 0 -25 0 0 -700 0 -700 25 0 25 0 0 -500 0 -500
25 0 25 0 0 -200 0 -200 25 0 25 0 0 -125 0 -125 -25 0 -25 0 0 -150 0 -150
-25 0 -25 0 0 -200 0 -200 -25 0 -25 0 0 100 0 100 -25 0 c-23 0 -25 3 -25 50
0 47 -2 50 -25 50 -20 0 -25 5 -25 25 0 20 -5 25 -25 25 -23 0 -25 3 -25 50 0
47 -2 50 -25 50 -20 0 -25 5 -25 25 0 20 -5 25 -25 25 -20 0 -25 5 -25 25 0
20 -5 25 -25 25 -23 0 -25 3 -25 50 0 47 -2 50 -25 50 -20 0 -25 5 -25 25 0
20 -5 25 -25 25 -20 0 -25 5 -25 25 0 23 -3 25 -50 25 -47 0 -50 2 -50 25 0
23 -3 25 -50 25 -47 0 -50 -2 -50 -25 0 -20 -5 -25 -25 -25 -24 0 -25 -2 -25
-75 0 -73 1 -75 25 -75 23 0 25 -3 25 -50 0 -47 2 -50 25 -50 20 0 25 -5 25
-25 0 -23 3 -25 50 -25 47 0 50 -2 50 -25 0 -20 5 -25 25 -25 20 0 25 -5 25
-25 0 -23 3 -25 50 -25 47 0 50 -2 50 -25 0 -20 5 -25 25 -25 20 0 25 -5 25
-25 0 -20 5 -25 25 -25 20 0 25 -5 25 -25 0 -20 5 -25 25 -25 23 0 25 -3 25
-50 0 -47 2 -50 25 -50 24 0 25 -2 25 -75 0 -73 1 -75 25 -75 20 0 25 -5 25
-25 0 -20 5 -25 25 -25 l25 0 0 -150 0 -150 25 0 25 0 0 -475 0 -475 25 0 25
0 0 -225 0 -225 25 0 c24 0 25 -2 25 -75 0 -73 1 -75 25 -75 20 0 25 -5 25
-25 0 -20 -5 -25 -25 -25 -23 0 -25 -3 -25 -50 l0 -50 -75 0 c-73 0 -75 1 -75
25 0 20 -5 25 -25 25 -20 0 -25 -5 -25 -25 0 -20 5 -25 25 -25 20 0 25 -5 25
-25 l0 -25 125 0 125 0 0 -75 c0 -73 1 -75 25 -75 l25 0 0 -100 0 -100 25 0
c23 0 25 -3 25 -50 0 -47 2 -50 25 -50 23 0 25 -3 25 -50 0 -47 2 -50 25 -50
23 0 25 -3 25 -50 0 -47 2 -50 25 -50 23 0 25 -3 25 -50 0 -47 2 -50 25 -50
24 0 25 -2 25 -75 0 -73 1 -75 25 -75 23 0 25 -3 25 -50 0 -47 2 -50 25 -50
23 0 25 -3 25 -50 0 -47 2 -50 25 -50 23 0 25 -3 25 -50 0 -47 2 -50 25 -50
20 0 25 -5 25 -25 0 -20 5 -25 25 -25 23 0 25 -3 25 -50 0 -47 2 -50 25 -50
23 0 25 -3 25 -50 0 -47 2 -50 25 -50 23 0 25 -3 25 -50 0 -47 2 -50 25 -50
20 0 25 -5 25 -25 0 -23 3 -25 50 -25 l50 0 0 -75 c0 -73 1 -75 25 -75 20 0
25 -5 25 -25 0 -20 5 -25 25 -25 20 0 25 -5 25 -25 0 -20 5 -25 25 -25 23 0
25 -3 25 -50 0 -47 2 -50 25 -50 20 0 25 -5 25 -25 0 -20 5 -25 25 -25 20 0
25 -5 25 -25 0 -20 5 -25 25 -25 23 0 25 -3 25 -50 0 -47 2 -50 25 -50 20 0
25 -5 25 -25 0 -20 5 -25 25 -25 20 0 25 -5 25 -25 0 -20 5 -25 25 -25 20 0
25 -5 25 -25 0 -20 5 -25 25 -25 20 0 25 -5 25 -25 0 -20 5 -25 25 -25 20 0
25 -5 25 -25 0 -20 5 -25 25 -25 20 0 25 -5 25 -25 0 -20 5 -25 25 -25 20 0
25 -5 25 -25 0 -20 5 -25 25 -25 20 0 25 -5 25 -25 0 -20 5 -25 25 -25 20 0
25 -5 25 -25 0 -20 5 -25 25 -25 20 0 25 -5 25 -25 0 -20 5 -25 25 -25 20 0
25 -5 25 -25 0 -20 5 -25 25 -25 20 0 25 -5 25 -25 0 -20 5 -25 25 -25 20 0
25 -5 25 -25 0 -20 5 -25 25 -25 20 0 25 -5 25 -25 0 -20 5 -25 25 -25 20 0
25 -5 25 -25 0 -20 5 -25 25 -25 20 0 25 -5 25 -25 0 -20 5 -25 25 -25 20 0
25 -5 25 -25 0 -20 5 -25 25 -25 20 0 25 -5 25 -25 0 -23 3 -25 50 -25 47 0
50 -2 50 -25 0 -20 5 -25 25 -25 20 0 25 -5 25 -25 0 -20 5 -25 25 -25 20 0
25 -5 25 -25 0 -23 3 -25 50 -25 47 0 50 -2 50 -25 0 -20 5 -25 25 -25 20 0
25 -5 25 -25 0 -20 5 -25 25 -25 20 0 25 -5 25 -25 0 -23 3 -25 50 -25 47 0
50 -2 50 -25 0 -20 5 -25 25 -25 20 0 25 -5 25 -25 0 -20 5 -25 25 -25 20 0
25 -5 25 -25 0 -23 3 -25 50 -25 47 0 50 -2 50 -25 0 -23 3 -25 50 -25 47 0
50 -2 50 -25 0 -20 5 -25 25 -25 20 0 25 -5 25 -25 0 -23 3 -25 50 -25 47 0
50 -2 50 -25 0 -24 2 -25 75 -25 73 0 75 -1 75 -25 0 -23 3 -25 50 -25 47 0
50 -2 50 -25 0 -23 3 -25 50 -25 47 0 50 -2 50 -25 0 -23 3 -25 50 -25 47 0
50 -2 50 -25 0 -24 2 -25 75 -25 73 0 75 -1 75 -25 0 -23 3 -25 50 -25 47 0
50 -2 50 -25 0 -24 2 -25 75 -25 73 0 75 -1 75 -25 l0 -25 100 0 100 0 0 -25
0 -25 100 0 100 0 0 -25 0 -25 150 0 150 0 0 -25 0 -25 300 0 300 0 0 -25 0
-25 150 0 150 0 0 25 0 25 275 0 275 0 0 25 0 25 150 0 150 0 0 25 0 25 150 0
150 0 0 25 0 25 100 0 100 0 0 25 c0 23 3 25 50 25 47 0 50 2 50 25 0 23 3 25
50 25 47 0 50 2 50 25 0 24 2 25 75 25 73 0 75 1 75 25 0 24 2 25 75 25 l75 0
0 -75 c0 -73 -1 -75 -25 -75 l-25 0 0 -425 0 -425 25 0 25 0 0 -150 0 -150 25
0 25 0 0 -150 0 -150 25 0 25 0 0 -100 0 -100 25 0 25 0 0 -100 0 -100 25 0
c23 0 25 -3 25 -50 0 -47 2 -50 25 -50 20 0 25 -5 25 -25 0 -20 5 -25 25 -25
23 0 25 -3 25 -50 0 -47 2 -50 25 -50 20 0 25 -5 25 -25 0 -20 5 -25 25 -25
23 0 25 -3 25 -50 0 -47 2 -50 25 -50 23 0 25 -3 25 -50 l0 -50 50 0 50 0 0
-50 c0 -47 2 -50 25 -50 20 0 25 -5 25 -25 0 -20 5 -25 25 -25 20 0 25 -5 25
-25 0 -20 5 -25 25 -25 20 0 25 -5 25 -25 0 -20 5 -25 25 -25 20 0 25 -5 25
-25 0 -20 5 -25 25 -25 20 0 25 -5 25 -25 0 -20 5 -25 25 -25 20 0 25 -5 25
-25 0 -20 5 -25 25 -25 20 0 25 -5 25 -25 0 -20 5 -25 25 -25 20 0 25 -5 25
-25 0 -20 5 -25 25 -25 20 0 25 -5 25 -25 0 -24 2 -25 75 -25 73 0 75 -1 75
-25 0 -20 5 -25 25 -25 20 0 25 -5 25 -25 0 -23 3 -25 50 -25 47 0 50 -2 50
-25 0 -20 5 -25 25 -25 20 0 25 -5 25 -25 0 -23 3 -25 50 -25 47 0 50 -2 50
-25 0 -23 3 -25 50 -25 47 0 50 -2 50 -25 l0 -25 100 0 100 0 0 -25 c0 -23 3
-25 50 -25 47 0 50 -2 50 -25 0 -24 2 -25 75 -25 73 0 75 -1 75 -25 0 -23 3
-25 50 -25 47 0 50 -2 50 -25 l0 -25 100 0 100 0 0 -25 0 -25 125 0 125 0 0
-25 0 -25 175 0 175 0 0 -25 0 -25 350 0 350 0 0 25 0 25 150 0 150 0 0 25 0
25 100 0 100 0 0 25 c0 24 2 25 75 25 73 0 75 1 75 25 0 20 5 25 25 25 20 0
25 5 25 25 0 23 3 25 50 25 47 0 50 2 50 25 0 23 3 25 50 25 47 0 50 2 50 25
0 23 3 25 50 25 47 0 50 2 50 25 0 20 5 25 25 25 20 0 25 5 25 25 0 20 5 25
25 25 20 0 25 5 25 25 0 20 5 25 25 25 20 0 25 5 25 25 0 23 3 25 50 25 47 0
50 2 50 25 0 20 5 25 25 25 20 0 25 5 25 25 0 20 5 25 25 25 20 0 25 5 25 25
0 20 5 25 25 25 23 0 25 3 25 50 0 47 2 50 25 50 20 0 25 5 25 25 0 20 5 25
25 25 20 0 25 5 25 25 0 20 5 25 25 25 20 0 25 5 25 25 0 20 5 25 25 25 23 0
25 3 25 50 0 47 2 50 25 50 23 0 25 3 25 50 0 47 2 50 25 50 20 0 25 5 25 25
0 20 5 25 25 25 20 0 25 5 25 25 0 20 5 25 25 25 24 0 25 2 25 75 0 73 1 75
25 75 20 0 25 5 25 25 0 20 5 25 25 25 23 0 25 3 25 50 0 47 2 50 25 50 24 0
25 2 25 75 l0 75 50 0 50 0 0 75 c0 73 1 75 25 75 24 0 25 2 25 75 0 73 1 75
25 75 23 0 25 3 25 50 0 47 -2 50 -25 50 -23 0 -25 -3 -25 -50 0 -47 -2 -50
-25 -50 -20 0 -25 -5 -25 -25 0 -20 -5 -25 -25 -25 -23 0 -25 -3 -25 -50 0
-47 -2 -50 -25 -50 -23 0 -25 -3 -25 -50 0 -47 -2 -50 -25 -50 -23 0 -25 -3
-25 -50 0 -47 -2 -50 -25 -50 -23 0 -25 -3 -25 -50 0 -47 -2 -50 -25 -50 -23
0 -25 -3 -25 -50 0 -47 -2 -50 -25 -50 -20 0 -25 -5 -25 -25 0 -20 -5 -25 -25
-25 -20 0 -25 -5 -25 -25 0 -20 -5 -25 -25 -25 -23 0 -25 -3 -25 -50 0 -47 -2
-50 -25 -50 -23 0 -25 -3 -25 -50 0 -47 -2 -50 -25 -50 -20 0 -25 -5 -25 -25
0 -20 -5 -25 -25 -25 -20 0 -25 -5 -25 -25 0 -20 -5 -25 -25 -25 -23 0 -25 -3
-25 -50 l0 -50 -50 0 c-47 0 -50 -2 -50 -25 0 -20 -5 -25 -25 -25 -20 0 -25
-5 -25 -25 0 -20 -5 -25 -25 -25 -23 0 -25 -3 -25 -50 0 -47 -2 -50 -25 -50
-20 0 -25 -5 -25 -25 0 -23 -3 -25 -50 -25 -47 0 -50 -2 -50 -25 0 -23 -3 -25
-50 -25 -47 0 -50 -2 -50 -25 0 -20 -5 -25 -25 -25 -20 0 -25 -5 -25 -25 0
-23 -3 -25 -50 -25 -47 0 -50 -2 -50 -25 0 -23 -3 -25 -50 -25 -47 0 -50 -2
-50 -25 0 -23 -3 -25 -50 -25 -47 0 -50 -2 -50 -25 0 -24 -2 -25 -75 -25 -73
0 -75 -1 -75 -25 0 -24 -2 -25 -75 -25 -73 0 -75 -1 -75 -25 l0 -25 -150 0
-150 0 0 -25 0 -25 -300 0 -300 0 0 25 0 25 -225 0 -225 0 0 25 0 25 -175 0
-175 0 0 25 c0 24 -2 25 -75 25 -73 0 -75 1 -75 25 l0 25 -100 0 -100 0 0 25
c0 20 -5 25 -25 25 -20 0 -25 5 -25 25 0 23 -3 25 -50 25 -47 0 -50 2 -50 25
0 23 -3 25 -50 25 -47 0 -50 2 -50 25 0 23 -3 25 -50 25 -47 0 -50 2 -50 25 0
20 -5 25 -25 25 -20 0 -25 5 -25 25 0 20 -5 25 -25 25 -20 0 -25 5 -25 25 0
20 -5 25 -25 25 -20 0 -25 5 -25 25 0 23 -3 25 -50 25 -47 0 -50 2 -50 25 0
23 -3 25 -50 25 -47 0 -50 2 -50 25 0 20 -5 25 -25 25 -20 0 -25 5 -25 25 0
20 -5 25 -25 25 -20 0 -25 5 -25 25 0 20 -5 25 -25 25 -20 0 -25 5 -25 25 0
20 -5 25 -25 25 -20 0 -25 5 -25 25 0 20 -5 25 -25 25 -20 0 -25 5 -25 25 0
20 -5 25 -25 25 -20 0 -25 5 -25 25 0 20 -5 25 -25 25 -23 0 -25 3 -25 50 0
47 -2 50 -25 50 -20 0 -25 5 -25 25 0 20 -5 25 -25 25 -20 0 -25 5 -25 25 0
20 -5 25 -25 25 -20 0 -25 5 -25 25 0 20 -5 25 -25 25 -20 0 -25 5 -25 25 0
20 -5 25 -25 25 -20 0 -25 5 -25 25 0 20 -5 25 -25 25 -23 0 -25 3 -25 50 0
47 -2 50 -25 50 -20 0 -25 5 -25 25 0 20 -5 25 -25 25 -20 0 -25 5 -25 25 0
20 -5 25 -25 25 -24 0 -25 2 -25 75 0 73 -1 75 -25 75 -24 0 -25 2 -25 75 0
73 -1 75 -25 75 -24 0 -25 2 -25 75 0 73 -1 75 -25 75 -24 0 -25 2 -25 75 0
73 -1 75 -25 75 l-25 0 0 175 0 175 -25 0 -25 0 0 250 0 250 -25 0 -25 0 0
375 0 375 25 0 c24 0 25 2 25 75 0 73 1 75 25 75 23 0 25 3 25 50 0 47 2 50
25 50 23 0 25 3 25 50 0 47 2 50 25 50 23 0 25 3 25 50 0 47 2 50 25 50 20 0
25 5 25 25 0 20 5 25 25 25 20 0 25 5 25 25 0 20 5 25 25 25 20 0 25 5 25 25
0 20 5 25 25 25 20 0 25 5 25 25 0 20 5 25 25 25 20 0 25 5 25 25 0 20 5 25
25 25 20 0 25 5 25 25 0 20 5 25 25 25 24 0 25 2 25 75 0 73 1 75 25 75 20 0
25 5 25 25 0 20 -5 25 -25 25 -20 0 -25 -5 -25 -25 0 -20 -5 -25 -25 -25 -20
0 -25 -5 -25 -25 0 -23 -3 -25 -50 -25 -47 0 -50 -2 -50 -25 0 -23 -3 -25 -50
-25 l-50 0 0 -50 c0 -47 -2 -50 -25 -50 -20 0 -25 -5 -25 -25 0 -20 -5 -25
-25 -25 -20 0 -25 -5 -25 -25 0 -23 -3 -25 -50 -25 -47 0 -50 -2 -50 -25 0
-23 -3 -25 -50 -25 -47 0 -50 -2 -50 -25 0 -20 -5 -25 -25 -25 -20 0 -25 -5
-25 -25 0 -20 -5 -25 -25 -25 -20 0 -25 -5 -25 -25 0 -20 -5 -25 -25 -25 -20
0 -25 -5 -25 -25 0 -23 -3 -25 -50 -25 -47 0 -50 -2 -50 -25 0 -23 -3 -25 -50
-25 -47 0 -50 -2 -50 -25 0 -23 -3 -25 -50 -25 -47 0 -50 -2 -50 -25 0 -20 -5
-25 -25 -25 -20 0 -25 -5 -25 -25 l0 -25 -125 0 -125 0 0 -25 0 -25 -125 0
-125 0 0 -25 c0 -23 -3 -25 -50 -25 -47 0 -50 2 -50 25 0 20 -5 25 -25 25 -20
0 -25 5 -25 25 0 20 -5 25 -25 25 -20 0 -25 5 -25 25 0 20 -5 25 -25 25 -23 0
-25 3 -25 50 0 47 -2 50 -25 50 l-25 0 0 225 0 225 25 0 c23 0 25 3 25 50 0
47 -2 50 -25 50 l-25 0 0 100 0 100 -350 0 -350 0 0 -25 0 -25 -125 0 -125 0
0 25 0 25 -300 0 -300 0 0 -25 c0 -20 -5 -25 -25 -25 -23 0 -25 -3 -25 -50 0
-47 -2 -50 -25 -50 l-25 0 0 -150 0 -150 25 0 c23 0 25 -3 25 -50 0 -47 -2
-50 -25 -50 l-25 0 0 -100 0 -100 -25 0 c-23 0 -25 -3 -25 -50 0 -47 -2 -50
-25 -50 -23 0 -25 -3 -25 -50 0 -47 -2 -50 -25 -50 -20 0 -25 -5 -25 -25 0
-24 -2 -25 -75 -25 -73 0 -75 1 -75 25 l0 25 -125 0 -125 0 0 25 c0 24 -2 25
-75 25 -73 0 -75 1 -75 25 0 23 -3 25 -50 25 -47 0 -50 2 -50 25 0 23 -3 25
-50 25 -47 0 -50 2 -50 25 0 23 -3 25 -50 25 -47 0 -50 2 -50 25 0 23 -3 25
-50 25 -47 0 -50 2 -50 25 0 20 -5 25 -25 25 -20 0 -25 5 -25 25 0 20 -5 25
-25 25 -20 0 -25 5 -25 25 0 20 -5 25 -25 25 -20 0 -25 5 -25 25 0 23 -3 25
-50 25 -47 0 -50 2 -50 25 0 20 -5 25 -25 25 -20 0 -25 5 -25 25 0 23 -3 25
-50 25 -47 0 -50 2 -50 25 0 20 -5 25 -25 25 -23 0 -25 3 -25 50 0 47 -2 50
-25 50 -20 0 -25 5 -25 25 0 23 -3 25 -50 25 -47 0 -50 2 -50 25 0 20 -5 25
-25 25 -20 0 -25 5 -25 25 0 23 -3 25 -50 25 l-50 0 0 50 c0 47 -2 50 -25 50
-20 0 -25 5 -25 25 0 23 -3 25 -50 25 -47 0 -50 2 -50 25 0 20 -5 25 -25 25
-20 0 -25 5 -25 25 0 23 -3 25 -50 25 -47 0 -50 2 -50 25 0 20 -5 25 -25 25
-23 0 -25 3 -25 50 l0 50 -50 0 c-47 0 -50 2 -50 25 0 20 -5 25 -25 25 -20 0
-25 5 -25 25 0 20 -5 25 -25 25 -20 0 -25 5 -25 25 0 20 -5 25 -25 25 -20 0
-25 5 -25 25 0 20 -5 25 -25 25 -20 0 -25 5 -25 25 0 20 -5 25 -25 25 -20 0
-25 5 -25 25 0 20 -5 25 -25 25 -20 0 -25 5 -25 25 0 20 -5 25 -25 25 -20 0
-25 5 -25 25 0 20 -5 25 -25 25 -20 0 -25 5 -25 25 0 20 -5 25 -25 25 -23 0
-25 3 -25 50 0 47 -2 50 -25 50 -20 0 -25 5 -25 25 0 20 -5 25 -25 25 -20 0
-25 5 -25 25 0 20 -5 25 -25 25 -23 0 -25 3 -25 50 0 47 -2 50 -25 50 -20 0
-25 5 -25 25 0 20 -5 25 -25 25 -23 0 -25 3 -25 50 0 47 -2 50 -25 50 -20 0
-25 5 -25 25 0 20 -5 25 -25 25 -20 0 -25 5 -25 25 0 20 -5 25 -25 25 -23 0
-25 3 -25 50 0 47 -2 50 -25 50 -20 0 -25 5 -25 25 0 20 -5 25 -25 25 -23 0
-25 3 -25 50 0 47 -2 50 -25 50 -23 0 -25 3 -25 50 0 47 -2 50 -25 50 -23 0
-25 3 -25 50 0 47 -2 50 -25 50 -20 0 -25 5 -25 25 0 20 -5 25 -25 25 -23 0
-25 3 -25 50 0 47 -2 50 -25 50 -23 0 -25 3 -25 50 0 47 -2 50 -25 50 -23 0
-25 3 -25 50 0 47 -2 50 -25 50 -20 0 -25 5 -25 25 0 23 -3 25 -50 25 l-50 0
0 50 c0 47 -2 50 -25 50 -20 0 -25 5 -25 25 0 20 -5 25 -25 25 -20 0 -25 5
-25 25 0 20 -5 25 -25 25 -23 0 -25 3 -25 50 0 47 -2 50 -25 50 -23 0 -25 3
-25 50 0 47 -2 50 -25 50 -20 0 -25 5 -25 25 0 20 -5 25 -25 25 -24 0 -25 2
-25 75 0 73 -1 75 -25 75 -24 0 -25 2 -25 75 0 73 -1 75 -25 75 l-25 0 0 125
0 125 -25 0 -25 0 0 525 0 525 -25 0 c-20 0 -25 5 -25 25 0 20 5 25 25 25 20
0 25 5 25 25 0 20 5 25 25 25 24 0 25 -2 25 -75 0 -73 1 -75 25 -75 20 0 25
-5 25 -25 0 -20 5 -25 25 -25 23 0 25 -3 25 -50 0 -47 2 -50 25 -50 20 0 25
-5 25 -25 0 -23 3 -25 50 -25 l50 0 0 -50 c0 -47 2 -50 25 -50 20 0 25 -5 25
-25 0 -20 5 -25 25 -25 20 0 25 -5 25 -25 0 -20 5 -25 25 -25 20 0 25 -5 25
-25 0 -24 2 -25 75 -25 73 0 75 -1 75 -25 0 -20 5 -25 25 -25 23 0 25 -3 25
-50 l0 -50 75 0 c73 0 75 -1 75 -25 0 -23 3 -25 50 -25 47 0 50 -2 50 -25 0
-20 5 -25 25 -25 20 0 25 -5 25 -25 l0 -25 125 0 125 0 0 -25 c0 -24 2 -25 75
-25 73 0 75 -1 75 -25 l0 -25 225 0 225 0 0 -25 c0 -20 5 -25 25 -25 20 0 25
5 25 25 l0 25 225 0 225 0 0 25 c0 24 2 25 75 25 73 0 75 1 75 25 l0 25 100 0
100 0 0 25 c0 24 2 25 75 25 73 0 75 1 75 25 0 23 3 25 50 25 47 0 50 2 50 25
0 23 3 25 50 25 47 0 50 2 50 25 0 20 5 25 25 25 20 0 25 5 25 25 0 20 5 25
25 25 20 0 25 5 25 25 0 23 3 25 50 25 47 0 50 2 50 25 0 20 5 25 25 25 20 0
25 5 25 25 0 20 5 25 25 25 20 0 25 5 25 25 0 20 5 25 25 25 20 0 25 5 25 25
0 20 5 25 25 25 20 0 25 5 25 25 0 20 5 25 25 25 20 0 25 5 25 25 0 20 5 25
25 25 20 0 25 5 25 25 0 20 5 25 25 25 20 0 25 5 25 25 0 20 5 25 25 25 20 0
25 5 25 25 0 20 5 25 25 25 23 0 25 3 25 50 0 47 2 50 25 50 20 0 25 5 25 25
0 20 5 25 25 25 23 0 25 3 25 50 0 47 2 50 25 50 24 0 25 2 25 75 l0 75 50 0
c47 0 50 2 50 25 0 20 -5 25 -25 25 -20 0 -25 5 -25 25 0 20 5 25 25 25 23 0
25 3 25 50 0 47 2 50 25 50 24 0 25 2 25 75 0 73 1 75 25 75 l25 0 0 100 0
100 25 0 c24 0 25 2 25 75 0 73 1 75 25 75 24 0 25 2 25 75 0 73 1 75 25 75
23 0 25 3 25 50 0 47 2 50 25 50 20 0 25 5 25 25 0 20 -5 25 -25 25 l-25 0 0
100 0 100 -25 0 -25 0 0 125 0 125 -25 0 -25 0 0 100 0 100 25 0 c20 0 25 5
25 25 0 23 3 25 50 25 47 0 50 2 50 25 0 20 5 25 25 25 20 0 25 5 25 25 l0 25
100 0 100 0 0 25 c0 24 2 25 75 25 73 0 75 1 75 25 l0 25 275 0 275 0 0 -25 0
-25 100 0 100 0 0 -25 c0 -24 2 -25 75 -25 73 0 75 -1 75 -25 0 -24 2 -25 75
-25 73 0 75 -1 75 -25 0 -20 5 -25 25 -25 20 0 25 -5 25 -25 0 -20 5 -25 25
-25 24 0 25 -2 25 -75 0 -73 -1 -75 -25 -75 l-25 0 0 -350 0 -350 25 0 25 0 0
-150 0 -150 25 0 25 0 0 -125 0 -125 25 0 c20 0 25 -5 25 -25 0 -20 5 -25 25
-25 23 0 25 -3 25 -50 0 -47 2 -50 25 -50 23 0 25 -3 25 -50 0 -47 2 -50 25
-50 l25 0 0 -100 0 -100 25 0 c20 0 25 -5 25 -25 0 -20 5 -25 25 -25 20 0 25
-5 25 -25 0 -20 5 -25 25 -25 23 0 25 -3 25 -50 0 -47 2 -50 25 -50 20 0 25
-5 25 -25 0 -20 5 -25 25 -25 23 0 25 -3 25 -50 0 -47 2 -50 25 -50 20 0 25
-5 25 -25 0 -20 5 -25 25 -25 20 0 25 -5 25 -25 0 -23 3 -25 50 -25 l50 0 0
-50 c0 -47 2 -50 25 -50 20 0 25 -5 25 -25 0 -23 3 -25 50 -25 47 0 50 -2 50
-25 0 -23 3 -25 50 -25 47 0 50 -2 50 -25 0 -20 5 -25 25 -25 20 0 25 -5 25
-25 0 -20 5 -25 25 -25 20 0 25 -5 25 -25 0 -20 5 -25 25 -25 20 0 25 -5 25
-25 0 -24 2 -25 75 -25 73 0 75 -1 75 -25 0 -24 2 -25 75 -25 73 0 75 -1 75
-25 l0 -25 100 0 100 0 0 -25 0 -25 100 0 100 0 0 -25 0 -25 475 0 475 0 0 25
c0 20 5 25 25 25 20 0 25 5 25 25 0 23 3 25 50 25 47 0 50 2 50 25 0 20 5 25
25 25 l25 0 0 100 0 100 -75 0 c-73 0 -75 -1 -75 -25 0 -23 -3 -25 -50 -25
-47 0 -50 -2 -50 -25 l0 -25 -450 0 -450 0 0 25 c0 23 -3 25 -50 25 -47 0 -50
2 -50 25 l0 25 -100 0 -100 0 0 25 c0 23 -3 25 -50 25 -47 0 -50 2 -50 25 0
23 -3 25 -50 25 -47 0 -50 2 -50 25 0 24 -2 25 -75 25 -73 0 -75 1 -75 25 0
20 -5 25 -25 25 -20 0 -25 5 -25 25 0 20 -5 25 -25 25 -20 0 -25 5 -25 25 0
23 -3 25 -50 25 -47 0 -50 2 -50 25 0 20 -5 25 -25 25 -20 0 -25 5 -25 25 0
20 -5 25 -25 25 -20 0 -25 5 -25 25 0 20 -5 25 -25 25 -20 0 -25 5 -25 25 0
20 -5 25 -25 25 -23 0 -25 3 -25 50 0 47 -2 50 -25 50 -23 0 -25 3 -25 50 l0
50 -50 0 -50 0 0 50 c0 47 -2 50 -25 50 -23 0 -25 3 -25 50 0 47 -2 50 -25 50
-23 0 -25 3 -25 50 0 47 -2 50 -25 50 l-25 0 0 100 0 100 -25 0 -25 0 0 100 0
100 -25 0 c-20 0 -25 5 -25 25 0 20 -5 25 -25 25 l-25 0 0 150 0 150 -25 0
-25 0 0 325 0 325 25 0 25 0 0 100 0 100 25 0 c20 0 25 5 25 25 0 20 5 25 25
25 20 0 25 5 25 25 0 20 5 25 25 25 20 0 25 5 25 25 0 20 5 25 25 25 23 0 25
3 25 50 0 47 2 50 25 50 20 0 25 5 25 25 0 23 3 25 50 25 47 0 50 2 50 25 0
23 3 25 50 25 47 0 50 2 50 25 0 20 5 25 25 25 20 0 25 5 25 25 0 23 3 25 50
25 47 0 50 2 50 25 0 23 3 25 50 25 47 0 50 2 50 25 0 23 3 25 50 25 47 0 50
2 50 25 l0 25 125 0 125 0 0 25 0 25 125 0 125 0 0 25 0 25 100 0 100 0 0 25
c0 20 5 25 25 25 20 0 25 -5 25 -25 l0 -25 450 0 450 0 0 -25 0 -25 175 0 175
0 0 -25 0 -25 100 0 100 0 0 -25 c0 -24 2 -25 75 -25 73 0 75 -1 75 -25 0 -20
5 -25 25 -25 20 0 25 -5 25 -25 0 -20 5 -25 25 -25 20 0 25 -5 25 -25 0 -23 3
-25 50 -25 l50 0 0 -50 c0 -47 2 -50 25 -50 20 0 25 -5 25 -25 0 -20 5 -25 25
-25 20 0 25 -5 25 -25 0 -20 5 -25 25 -25 23 0 25 -3 25 -50 0 -47 2 -50 25
-50 23 0 25 -3 25 -50 0 -47 2 -50 25 -50 24 0 25 -2 25 -75 0 -73 1 -75 25
-75 l25 0 0 -100 0 -100 25 0 25 0 0 -350 0 -350 -25 0 c-23 0 -25 3 -25 50 0
47 -2 50 -25 50 -23 0 -25 3 -25 50 0 47 -2 50 -25 50 -20 0 -25 5 -25 25 l0
25 -100 0 -100 0 0 25 c0 20 -5 25 -25 25 -20 0 -25 -5 -25 -25 0 -20 5 -25
25 -25 23 0 25 -3 25 -50 0 -47 2 -50 25 -50 23 0 25 -3 25 -50 0 -47 2 -50
25 -50 20 0 25 -5 25 -25 0 -20 5 -25 25 -25 20 0 25 -5 25 -25 0 -20 5 -25
25 -25 20 0 25 -5 25 -25 0 -20 5 -25 25 -25 23 0 25 -3 25 -50 0 -47 2 -50
25 -50 23 0 25 -3 25 -50 l0 -50 50 0 c47 0 50 -2 50 -25 0 -23 3 -25 50 -25
47 0 50 -2 50 -25 0 -20 5 -25 25 -25 20 0 25 -5 25 -25 0 -23 3 -25 50 -25
l50 0 0 100 0 100 25 0 25 0 0 600 0 600 25 0 25 0 0 -800 0 -800 -25 0 -25 0
0 -125 0 -125 25 0 25 0 0 100 0 100 25 0 25 0 0 -375 0 -375 -25 0 -25 0 0
-225 0 -225 -25 0 -25 0 0 -100 0 -100 -25 0 c-24 0 -25 -2 -25 -75 0 -73 -1
-75 -25 -75 -24 0 -25 -2 -25 -75 0 -73 -1 -75 -25 -75 l-25 0 0 225 0 225 25
0 25 0 0 200 0 200 25 0 c20 0 25 5 25 25 0 20 5 25 25 25 20 0 25 5 25 25 0
20 -5 25 -25 25 -24 0 -25 2 -25 75 0 73 1 75 25 75 20 0 25 5 25 25 0 20 -5
25 -25 25 -20 0 -25 5 -25 25 0 20 5 25 25 25 23 0 25 3 25 50 0 47 2 50 25
50 24 0 25 2 25 75 l0 75 -50 0 -50 0 0 -50 c0 -47 -2 -50 -25 -50 l-25 0 0
-150 0 -150 -25 0 -25 0 0 -250 0 -250 -25 0 -25 0 0 -175 0 -175 -25 0 -25 0
0 -125 0 -125 -25 0 -25 0 0 -100 0 -100 -25 0 -25 0 0 -125 0 -125 25 0 c20
0 25 -5 25 -25 0 -20 -5 -25 -25 -25 l-25 0 0 -100 0 -100 -25 0 -25 0 0 -250
0 -250 -25 0 -25 0 0 -175 0 -175 25 0 c23 0 25 -3 25 -50 l0 -50 50 0 c47 0
50 -2 50 -25 0 -23 3 -25 50 -25 47 0 50 2 50 25 0 20 5 25 25 25 23 0 25 3
25 50 0 47 2 50 25 50 20 0 25 5 25 25 0 20 5 25 25 25 20 0 25 5 25 25 0 20
5 25 25 25 20 0 25 5 25 25 0 20 5 25 25 25 24 0 25 2 25 75 0 73 1 75 25 75
20 0 25 5 25 25 0 20 5 25 25 25 20 0 25 5 25 25 0 20 5 25 25 25 23 0 25 3
25 50 0 47 2 50 25 50 24 0 25 2 25 75 0 73 1 75 25 75 23 0 25 3 25 50 0 47
2 50 25 50 24 0 25 2 25 75 0 73 1 75 25 75 24 0 25 2 25 75 0 73 1 75 25 75
23 0 25 3 25 50 0 47 2 50 25 50 24 0 25 2 25 75 0 73 1 75 25 75 20 0 25 5
25 25 0 23 3 25 50 25 47 0 50 -2 50 -25 0 -20 5 -25 25 -25 20 0 25 -5 25
-25 0 -20 5 -25 25 -25 23 0 25 3 25 50 0 47 -2 50 -25 50 -20 0 -25 5 -25 25
0 23 -3 25 -50 25 l-50 0 0 125 0 125 25 0 25 0 0 175 0 175 25 0 25 0 0 150
0 150 25 0 25 0 0 175 0 175 25 0 c23 0 25 3 25 50 0 47 2 50 25 50 l25 0 0
100 0 100 25 0 c24 0 25 2 25 75 0 73 1 75 25 75 l25 0 0 125 0 125 25 0 c24
0 25 2 25 75 0 73 1 75 25 75 20 0 25 5 25 25 0 20 5 25 25 25 23 0 25 3 25
50 0 47 2 50 25 50 20 0 25 5 25 25 0 20 5 25 25 25 20 0 25 5 25 25 0 20 5
25 25 25 20 0 25 5 25 25 0 23 3 25 50 25 47 0 50 2 50 25 0 20 5 25 25 25 20
0 25 5 25 25 0 23 3 25 50 25 47 0 50 2 50 25 0 20 5 25 25 25 20 0 25 5 25
25 0 20 5 25 25 25 20 0 25 5 25 25 0 20 5 25 25 25 23 0 25 3 25 50 0 47 -2
50 -25 50 -20 0 -25 5 -25 25 0 20 -5 25 -25 25 -20 0 -25 5 -25 25 0 23 -3
25 -50 25 -47 0 -50 -2 -50 -25 0 -24 -2 -25 -75 -25 -73 0 -75 -1 -75 -25 0
-20 -5 -25 -25 -25 -20 0 -25 -5 -25 -25 0 -20 -5 -25 -25 -25 -23 0 -25 -3
-25 -50 0 -47 -2 -50 -25 -50 -20 0 -25 -5 -25 -25 0 -20 -5 -25 -25 -25 -20
0 -25 -5 -25 -25 0 -20 -5 -25 -25 -25 -20 0 -25 -5 -25 -25 0 -20 -5 -25 -25
-25 -23 0 -25 -3 -25 -50 0 -47 -2 -50 -25 -50 -23 0 -25 -3 -25 -50 0 -47 -2
-50 -25 -50 -23 0 -25 -3 -25 -50 0 -47 -2 -50 -25 -50 -23 0 -25 -3 -25 -50
l0 -50 -50 0 -50 0 0 275 0 275 -25 0 -25 0 0 200 0 200 25 0 25 0 0 100 0
100 25 0 c23 0 25 3 25 50 0 47 2 50 25 50 l25 0 0 225 0 225 25 0 25 0 0
1525 0 1525 -25 0 -25 0 0 150 0 150 -50 0 -50 0 0 100 0 100 -25 0 c-24 0
-25 2 -25 75 0 73 -1 75 -25 75 -23 0 -25 3 -25 50 0 47 -2 50 -25 50 -23 0
-25 3 -25 50 0 47 -2 50 -25 50 -20 0 -25 5 -25 25 0 20 -5 25 -25 25 -20 0
-25 5 -25 25 0 20 -5 25 -25 25 -20 0 -25 5 -25 25 0 20 -5 25 -25 25 -23 0
-25 3 -25 50 0 47 -2 50 -25 50 -20 0 -25 5 -25 25 0 20 -5 25 -25 25 -20 0
-25 5 -25 25 0 23 -3 25 -50 25 l-50 0 0 50 c0 47 -2 50 -25 50 -20 0 -25 5
-25 25 0 20 -5 25 -25 25 -24 0 -25 2 -25 75 0 73 -1 75 -25 75 -23 0 -25 3
-25 50 0 47 2 50 25 50 l25 0 0 125 0 125 -25 0 -25 0 0 150 0 150 -25 0 c-20
0 -25 5 -25 25 0 20 -5 25 -25 25 -20 0 -25 5 -25 25 0 20 -5 25 -25 25 -23 0
-25 3 -25 50 0 47 -2 50 -25 50 -23 0 -25 3 -25 50 0 47 -2 50 -25 50 -23 0
-25 3 -25 50 0 47 -2 50 -25 50 -20 0 -25 5 -25 25 0 20 -5 25 -25 25 -23 0
-25 3 -25 50 l0 50 -50 0 c-47 0 -50 2 -50 25 0 20 -5 25 -25 25 -20 0 -25 5
-25 25 0 20 -5 25 -25 25 -20 0 -25 5 -25 25 0 20 -5 25 -25 25 -20 0 -25 5
-25 25 0 20 -5 25 -25 25 -20 0 -25 5 -25 25 0 23 -3 25 -50 25 -47 0 -50 2
-50 25 0 20 -5 25 -25 25 -20 0 -25 5 -25 25 0 23 -3 25 -50 25 -47 0 -50 2
-50 25 0 20 -5 25 -25 25 -20 0 -25 5 -25 25 0 23 -3 25 -50 25 -47 0 -50 2
-50 25 0 23 -3 25 -50 25 -47 0 -50 2 -50 25 0 20 -5 25 -25 25 -20 0 -25 5
-25 25 0 24 -2 25 -75 25 -73 0 -75 1 -75 25 0 24 -2 25 -75 25 -73 0 -75 1
-75 25 0 23 -3 25 -50 25 -47 0 -50 2 -50 25 0 23 -3 25 -50 25 -47 0 -50 2
-50 25 0 24 -2 25 -75 25 -73 0 -75 1 -75 25 0 20 -5 25 -25 25 -20 0 -25 5
-25 25 0 23 -3 25 -50 25 -47 0 -50 2 -50 25 0 23 -3 25 -50 25 -47 0 -50 2
-50 25 0 20 -5 25 -25 25 -20 0 -25 5 -25 25 0 23 -3 25 -50 25 -47 0 -50 2
-50 25 0 20 -5 25 -25 25 -20 0 -25 5 -25 25 0 24 -2 25 -75 25 -73 0 -75 1
-75 25 0 23 -3 25 -50 25 -47 0 -50 2 -50 25 0 23 -3 25 -50 25 -47 0 -50 2
-50 25 0 23 -3 25 -50 25 -47 0 -50 2 -50 25 0 20 -5 25 -25 25 -20 0 -25 5
-25 25 0 23 -3 25 -50 25 -47 0 -50 2 -50 25 0 24 -2 25 -75 25 -73 0 -75 1
-75 25 0 23 -3 25 -50 25 -47 0 -50 2 -50 25 0 24 -2 25 -75 25 -73 0 -75 1
-75 25 0 23 -3 25 -50 25 -47 0 -50 2 -50 25 0 24 -2 25 -75 25 -73 0 -75 1
-75 25 0 24 -2 25 -75 25 -73 0 -75 1 -75 25 l0 25 -125 0 -125 0 0 25 0 25
-200 0 -200 0 0 25 c0 20 -5 25 -25 25 -20 0 -25 5 -25 25 0 24 -2 25 -75 25
-73 0 -75 1 -75 25 0 20 -5 25 -25 25 -20 0 -25 5 -25 25 0 24 -2 25 -75 25
-73 0 -75 1 -75 25 l0 25 -100 0 -100 0 0 25 0 25 -150 0 -150 0 0 25 0 25
-200 0 -200 0 0 -25 0 -25 -175 0 -175 0 0 25 c0 24 -2 25 -75 25 -73 0 -75 1
-75 25 0 20 -5 25 -25 25 -20 0 -25 5 -25 25 l0 25 -100 0 -100 0 0 25 0 25
-275 0 -275 0 0 -25 c0 -23 -3 -25 -50 -25 l-50 0 0 -50 0 -50 -175 0 -175 0
0 25 c0 23 -3 25 -50 25 -47 0 -50 2 -50 25 0 23 -3 25 -50 25 -47 0 -50 2
-50 25 l0 25 -100 0 -100 0 0 25 0 25 -100 0 -100 0 0 25 c0 23 -3 25 -50 25
-47 0 -50 -2 -50 -25z m6050 -3650 l0 -25 150 0 150 0 0 -25 c0 -23 3 -25 50
-25 47 0 50 -2 50 -25 0 -23 3 -25 50 -25 47 0 50 -2 50 -25 0 -23 3 -25 50
-25 47 0 50 -2 50 -25 0 -20 5 -25 25 -25 20 0 25 -5 25 -25 0 -23 3 -25 50
-25 47 0 50 -2 50 -25 0 -20 5 -25 25 -25 20 0 25 -5 25 -25 0 -24 2 -25 75
-25 l75 0 0 -50 0 -50 50 0 c47 0 50 -2 50 -25 0 -23 3 -25 50 -25 47 0 50 -2
50 -25 0 -20 5 -25 25 -25 20 0 25 -5 25 -25 0 -20 5 -25 25 -25 20 0 25 -5
25 -25 0 -20 5 -25 25 -25 20 0 25 -5 25 -25 0 -20 5 -25 25 -25 23 0 25 -3
25 -50 l0 -50 50 0 50 0 0 -50 c0 -47 2 -50 25 -50 20 0 25 -5 25 -25 0 -20 5
-25 25 -25 23 0 25 -3 25 -50 0 -47 2 -50 25 -50 23 0 25 -3 25 -50 0 -47 2
-50 25 -50 23 0 25 -3 25 -50 0 -47 2 -50 25 -50 23 0 25 -3 25 -50 0 -47 2
-50 25 -50 23 0 25 -3 25 -50 0 -47 2 -50 25 -50 l25 0 0 -100 0 -100 25 0 25
0 0 -100 0 -100 25 0 25 0 0 -150 0 -150 25 0 25 0 0 -175 0 -175 25 0 c23 0
25 -3 25 -50 0 -47 2 -50 25 -50 l25 0 0 -200 0 -200 25 0 25 0 0 -125 0 -125
25 0 25 0 0 -175 0 -175 -25 0 -25 0 0 -125 0 -125 -25 0 c-20 0 -25 -5 -25
-25 0 -20 5 -25 25 -25 23 0 25 -3 25 -50 l0 -50 -50 0 c-47 0 -50 2 -50 25
l0 25 -125 0 -125 0 0 25 0 25 -125 0 -125 0 0 25 c0 24 -2 25 -75 25 -73 0
-75 1 -75 25 0 20 -5 25 -25 25 -20 0 -25 5 -25 25 0 20 -5 25 -25 25 -20 0
-25 -5 -25 -25 0 -20 -5 -25 -25 -25 -20 0 -25 5 -25 25 0 23 -3 25 -50 25
-47 0 -50 2 -50 25 l0 25 -100 0 -100 0 0 25 0 25 -175 0 -175 0 0 25 0 25
-225 0 -225 0 0 25 0 25 -300 0 -300 0 0 -25 0 -25 -225 0 -225 0 0 -25 0 -25
-125 0 -125 0 0 -25 c0 -24 -2 -25 -75 -25 -73 0 -75 -1 -75 -25 l0 -25 -100
0 -100 0 0 -25 c0 -20 -5 -25 -25 -25 -20 0 -25 -5 -25 -25 0 -23 -3 -25 -50
-25 -47 0 -50 -2 -50 -25 0 -20 -5 -25 -25 -25 -20 0 -25 -5 -25 -25 0 -23 -3
-25 -50 -25 -47 0 -50 -2 -50 -25 0 -23 -3 -25 -50 -25 -47 0 -50 -2 -50 -25
0 -20 -5 -25 -25 -25 -20 0 -25 -5 -25 -25 0 -20 -5 -25 -25 -25 -20 0 -25 -5
-25 -25 0 -20 -5 -25 -25 -25 -20 0 -25 -5 -25 -25 0 -20 -5 -25 -25 -25 -20
0 -25 -5 -25 -25 0 -20 -5 -25 -25 -25 -20 0 -25 -5 -25 -25 0 -23 -3 -25 -50
-25 -47 0 -50 2 -50 25 0 24 -2 25 -75 25 -73 0 -75 1 -75 25 l0 25 -100 0
-100 0 0 25 0 25 -125 0 -125 0 0 25 0 25 -125 0 -125 0 0 25 0 25 -100 0
-100 0 0 -25 c0 -24 -2 -25 -75 -25 -73 0 -75 -1 -75 -25 l0 -25 -125 0 -125
0 0 -25 c0 -24 -2 -25 -75 -25 -73 0 -75 -1 -75 -25 0 -24 -2 -25 -75 -25 -73
0 -75 -1 -75 -25 0 -24 -2 -25 -75 -25 -73 0 -75 1 -75 25 0 20 -5 25 -25 25
-20 0 -25 5 -25 25 0 20 -5 25 -25 25 -20 0 -25 5 -25 25 0 20 -5 25 -25 25
-20 0 -25 5 -25 25 0 20 -5 25 -25 25 -23 0 -25 3 -25 50 l0 50 -75 0 c-73 0
-75 1 -75 25 0 20 -5 25 -25 25 -20 0 -25 5 -25 25 0 23 -3 25 -50 25 -47 0
-50 2 -50 25 0 23 -3 25 -50 25 -47 0 -50 2 -50 25 0 23 -3 25 -50 25 -47 0
-50 2 -50 25 0 20 -5 25 -25 25 -20 0 -25 5 -25 25 0 20 -5 25 -25 25 -20 0
-25 -5 -25 -25 0 -20 -5 -25 -25 -25 -20 0 -25 5 -25 25 0 23 -3 25 -50 25
-47 0 -50 2 -50 25 0 20 -5 25 -25 25 -20 0 -25 -5 -25 -25 0 -20 -5 -25 -25
-25 -20 0 -25 5 -25 25 0 24 -2 25 -75 25 -73 0 -75 1 -75 25 0 20 -5 25 -25
25 -20 0 -25 -5 -25 -25 0 -20 -5 -25 -25 -25 -20 0 -25 5 -25 25 l0 25 -150
0 -150 0 0 25 0 25 -300 0 -300 0 0 -25 c0 -24 -2 -25 -75 -25 -73 0 -75 1
-75 25 0 23 -3 25 -50 25 -47 0 -50 -2 -50 -25 l0 -25 -150 0 -150 0 0 -25 0
-25 -150 0 -150 0 0 -25 0 -25 -100 0 -100 0 0 -25 0 -25 -100 0 -100 0 0 -25
c0 -24 -2 -25 -75 -25 -73 0 -75 -1 -75 -25 0 -23 -3 -25 -50 -25 -47 0 -50
-2 -50 -25 0 -24 -2 -25 -75 -25 -73 0 -75 1 -75 25 0 20 -5 25 -25 25 -24 0
-25 2 -25 75 0 73 -1 75 -25 75 l-25 0 0 200 0 200 25 0 25 0 0 175 0 175 25
0 25 0 0 175 0 175 25 0 25 0 0 175 0 175 25 0 25 0 0 125 0 125 25 0 25 0 0
100 0 100 25 0 25 0 0 100 0 100 25 0 25 0 0 100 0 100 25 0 c23 0 25 3 25 50
0 47 2 50 25 50 24 0 25 2 25 75 0 73 1 75 25 75 23 0 25 3 25 50 l0 50 50 0
50 0 0 75 c0 73 1 75 25 75 20 0 25 5 25 25 0 20 5 25 25 25 23 0 25 3 25 50
0 47 2 50 25 50 23 0 25 3 25 50 l0 50 50 0 c47 0 50 2 50 25 0 20 5 25 25 25
20 0 25 5 25 25 0 20 5 25 25 25 20 0 25 5 25 25 0 23 3 25 50 25 47 0 50 2
50 25 0 20 5 25 25 25 20 0 25 5 25 25 0 20 5 25 25 25 20 0 25 5 25 25 0 23
3 25 50 25 47 0 50 2 50 25 0 20 5 25 25 25 20 0 25 5 25 25 0 24 2 25 75 25
73 0 75 1 75 25 0 20 5 25 25 25 20 0 25 5 25 25 0 23 3 25 50 25 47 0 50 2
50 25 0 24 2 25 75 25 73 0 75 1 75 25 0 24 2 25 75 25 73 0 75 1 75 25 l0 25
750 0 750 0 0 -25 0 -25 850 0 850 0 0 -25 0 -25 375 0 375 0 0 25 0 25 200 0
200 0 0 25 0 25 250 0 250 0 0 25 0 25 700 0 700 0 0 -25z m-5750 -3700 c0
-23 -3 -25 -50 -25 -47 0 -50 2 -50 25 0 23 3 25 50 25 47 0 50 -2 50 -25z
m5300 0 l0 -25 -125 0 -125 0 0 25 0 25 125 0 125 0 0 -25z m-4950 -50 c0 -23
-3 -25 -50 -25 -47 0 -50 2 -50 25 0 23 3 25 50 25 47 0 50 -2 50 -25z m4450
0 c0 -23 -3 -25 -50 -25 -47 0 -50 2 -50 25 0 23 3 25 50 25 47 0 50 -2 50
-25z m-4200 -50 c0 -23 -3 -25 -50 -25 -47 0 -50 2 -50 25 0 23 3 25 50 25 47
0 50 -2 50 -25z m3950 0 c0 -20 -5 -25 -25 -25 -20 0 -25 5 -25 25 0 20 5 25
25 25 20 0 25 -5 25 -25z m-4450 -100 l0 -25 125 0 125 0 0 -25 0 -25 125 0
125 0 0 -25 c0 -23 3 -25 50 -25 47 0 50 -2 50 -25 0 -23 3 -25 50 -25 47 0
50 -2 50 -25 0 -20 5 -25 25 -25 20 0 25 -5 25 -25 0 -23 3 -25 50 -25 47 0
50 -2 50 -25 0 -23 3 -25 50 -25 47 0 50 -2 50 -25 0 -20 5 -25 25 -25 20 0
25 -5 25 -25 0 -20 5 -25 25 -25 20 0 25 -5 25 -25 0 -20 5 -25 25 -25 20 0
25 -5 25 -25 0 -20 5 -25 25 -25 20 0 25 -5 25 -25 0 -20 5 -25 25 -25 20 0
25 -5 25 -25 0 -20 5 -25 25 -25 23 0 25 -3 25 -50 0 -47 2 -50 25 -50 l25 0
0 -150 0 -150 25 0 25 0 0 -175 0 -175 -25 0 c-20 0 -25 -5 -25 -25 0 -20 5
-25 25 -25 20 0 25 -5 25 -25 0 -20 -5 -25 -25 -25 l-25 0 0 -125 0 -125 -25
0 c-24 0 -25 2 -25 75 0 73 -1 75 -25 75 -23 0 -25 3 -25 50 0 47 -2 50 -25
50 -20 0 -25 5 -25 25 0 20 -5 25 -25 25 -20 0 -25 5 -25 25 0 20 -5 25 -25
25 -23 0 -25 3 -25 50 0 47 -2 50 -25 50 -20 0 -25 5 -25 25 0 20 -5 25 -25
25 -20 0 -25 5 -25 25 0 20 -5 25 -25 25 -20 0 -25 5 -25 25 0 20 -5 25 -25
25 -20 0 -25 5 -25 25 0 20 -5 25 -25 25 -20 0 -25 5 -25 25 0 20 -5 25 -25
25 -20 0 -25 5 -25 25 0 20 -5 25 -25 25 -20 0 -25 5 -25 25 0 20 -5 25 -25
25 -20 0 -25 5 -25 25 0 23 -3 25 -50 25 -47 0 -50 2 -50 25 0 20 -5 25 -25
25 -20 0 -25 5 -25 25 0 23 -3 25 -50 25 -47 0 -50 2 -50 25 l0 25 -100 0
-100 0 0 25 0 25 -175 0 -175 0 0 25 c0 23 -3 25 -50 25 -47 0 -50 -2 -50 -25
l0 -25 -200 0 -200 0 0 -25 0 -25 -100 0 -100 0 0 -25 c0 -24 -2 -25 -75 -25
-73 0 -75 -1 -75 -25 0 -20 -5 -25 -25 -25 -20 0 -25 -5 -25 -25 0 -24 -2 -25
-75 -25 -73 0 -75 -1 -75 -25 0 -23 -3 -25 -50 -25 -47 0 -50 -2 -50 -25 0
-20 -5 -25 -25 -25 -20 0 -25 -5 -25 -25 0 -23 -3 -25 -50 -25 l-50 0 0 -50
c0 -47 -2 -50 -25 -50 -20 0 -25 -5 -25 -25 0 -20 -5 -25 -25 -25 -20 0 -25
-5 -25 -25 0 -20 -5 -25 -25 -25 -20 0 -25 -5 -25 -25 0 -20 -5 -25 -25 -25
-20 0 -25 -5 -25 -25 0 -20 -5 -25 -25 -25 -20 0 -25 -5 -25 -25 0 -23 -3 -25
-50 -25 -47 0 -50 -2 -50 -25 0 -23 -3 -25 -50 -25 -47 0 -50 -2 -50 -25 0
-20 -5 -25 -25 -25 -20 0 -25 -5 -25 -25 0 -20 -5 -25 -25 -25 -20 0 -25 -5
-25 -25 0 -20 -5 -25 -25 -25 -23 0 -25 -3 -25 -50 0 -47 -2 -50 -25 -50 -20
0 -25 -5 -25 -25 0 -20 -5 -25 -25 -25 l-25 0 0 -150 0 -150 25 0 c20 0 25 -5
25 -25 0 -20 5 -25 25 -25 20 0 25 5 25 25 0 20 5 25 25 25 23 0 25 3 25 50 0
47 2 50 25 50 20 0 25 5 25 25 0 20 5 25 25 25 23 0 25 3 25 50 0 47 2 50 25
50 23 0 25 3 25 50 0 47 2 50 25 50 23 0 25 3 25 50 0 47 2 50 25 50 20 0 25
5 25 25 0 23 3 25 50 25 l50 0 0 -50 c0 -47 2 -50 25 -50 20 0 25 -5 25 -25 0
-20 5 -25 25 -25 23 0 25 3 25 50 0 47 2 50 25 50 20 0 25 5 25 25 0 20 5 25
25 25 23 0 25 3 25 50 0 47 2 50 25 50 20 0 25 5 25 25 0 23 3 25 50 25 l50 0
0 50 c0 47 2 50 25 50 20 0 25 5 25 25 0 23 3 25 50 25 47 0 50 2 50 25 0 23
3 25 50 25 47 0 50 2 50 25 0 24 2 25 75 25 73 0 75 1 75 25 0 20 5 25 25 25
23 0 25 -3 25 -50 0 -47 -2 -50 -25 -50 -23 0 -25 -3 -25 -50 0 -47 -2 -50
-25 -50 l-25 0 0 -275 0 -275 25 0 c20 0 25 -5 25 -25 0 -20 5 -25 25 -25 20
0 25 -5 25 -25 l0 -25 125 0 125 0 0 -25 0 -25 175 0 175 0 0 -25 0 -25 150 0
150 0 0 -25 0 -25 225 0 225 0 0 -25 c0 -24 2 -25 75 -25 73 0 75 1 75 25 0
20 5 25 25 25 23 0 25 3 25 50 0 47 2 50 25 50 24 0 25 2 25 75 0 73 1 75 25
75 l25 0 0 200 0 200 75 0 c73 0 75 -1 75 -25 0 -20 5 -25 25 -25 20 0 25 -5
25 -25 0 -20 5 -25 25 -25 20 0 25 -5 25 -25 0 -20 5 -25 25 -25 23 0 25 -3
25 -50 0 -47 2 -50 25 -50 20 0 25 -5 25 -25 0 -20 5 -25 25 -25 20 0 25 -5
25 -25 0 -20 5 -25 25 -25 l25 0 0 -125 0 -125 -25 0 c-24 0 -25 -2 -25 -75 0
-73 -1 -75 -25 -75 -20 0 -25 -5 -25 -25 0 -20 -5 -25 -25 -25 -23 0 -25 -3
-25 -50 0 -47 -2 -50 -25 -50 -23 0 -25 -3 -25 -50 0 -47 -2 -50 -25 -50 -23
0 -25 -3 -25 -50 0 -47 -2 -50 -25 -50 -23 0 -25 -3 -25 -50 0 -47 -2 -50 -25
-50 -20 0 -25 -5 -25 -25 0 -20 -5 -25 -25 -25 -20 0 -25 -5 -25 -25 0 -20 -5
-25 -25 -25 -23 0 -25 -3 -25 -50 0 -47 -2 -50 -25 -50 -20 0 -25 -5 -25 -25
0 -20 -5 -25 -25 -25 -20 0 -25 -5 -25 -25 0 -20 -5 -25 -25 -25 -20 0 -25 -5
-25 -25 0 -23 -3 -25 -50 -25 -47 0 -50 -2 -50 -25 0 -20 -5 -25 -25 -25 -20
0 -25 -5 -25 -25 0 -20 -5 -25 -25 -25 -20 0 -25 -5 -25 -25 0 -23 -3 -25 -50
-25 -47 0 -50 -2 -50 -25 0 -24 -2 -25 -75 -25 -73 0 -75 -1 -75 -25 0 -23 -3
-25 -50 -25 -47 0 -50 -2 -50 -25 l0 -25 -100 0 -100 0 0 -25 c0 -23 -3 -25
-50 -25 -47 0 -50 -2 -50 -25 l0 -25 -425 0 -425 0 0 25 c0 24 -2 25 -75 25
-73 0 -75 1 -75 25 0 24 -2 25 -75 25 -73 0 -75 1 -75 25 0 23 -3 25 -50 25
-47 0 -50 2 -50 25 0 23 -3 25 -50 25 -47 0 -50 2 -50 25 0 24 -2 25 -75 25
-73 0 -75 1 -75 25 0 20 -5 25 -25 25 -23 0 -25 3 -25 50 0 47 -2 50 -25 50
-20 0 -25 5 -25 25 0 20 -5 25 -25 25 -20 0 -25 5 -25 25 0 20 -5 25 -25 25
-20 0 -25 5 -25 25 0 23 -3 25 -50 25 -47 0 -50 2 -50 25 0 20 -5 25 -25 25
-23 0 -25 3 -25 50 0 47 -2 50 -25 50 -20 0 -25 5 -25 25 0 20 -5 25 -25 25
-24 0 -25 2 -25 75 0 73 -1 75 -25 75 -23 0 -25 3 -25 50 0 47 -2 50 -25 50
-20 0 -25 5 -25 25 0 20 -5 25 -25 25 l-25 0 0 100 0 100 -25 0 -25 0 0 125 0
125 -25 0 -25 0 0 325 0 325 25 0 25 0 0 125 0 125 25 0 25 0 0 100 0 100 25
0 c23 0 25 3 25 50 0 47 2 50 25 50 20 0 25 5 25 25 0 20 5 25 25 25 24 0 25
2 25 75 0 73 1 75 25 75 20 0 25 5 25 25 0 20 5 25 25 25 23 0 25 3 25 50 0
47 2 50 25 50 20 0 25 5 25 25 0 23 3 25 50 25 47 0 50 2 50 25 0 20 5 25 25
25 20 0 25 5 25 25 0 20 5 25 25 25 20 0 25 5 25 25 0 24 2 25 75 25 73 0 75
1 75 25 0 24 2 25 75 25 73 0 75 1 75 25 l0 25 175 0 175 0 0 25 0 25 575 0
575 0 0 -25z m650 0 c0 -20 -5 -25 -25 -25 -20 0 -25 5 -25 25 0 20 5 25 25
25 20 0 25 -5 25 -25z m150 -50 c0 -20 -5 -25 -25 -25 -20 0 -25 5 -25 25 0
20 5 25 25 25 20 0 25 -5 25 -25z m600 -400 c0 -20 -5 -25 -25 -25 -20 0 -25
5 -25 25 0 20 5 25 25 25 20 0 25 -5 25 -25z m-1700 -600 c0 -20 5 -25 25 -25
20 0 25 -5 25 -25 0 -20 5 -25 25 -25 l25 0 0 -100 0 -100 -25 0 c-20 0 -25
-5 -25 -25 0 -20 -5 -25 -25 -25 -20 0 -25 -5 -25 -25 l0 -25 -100 0 -100 0 0
25 c0 20 -5 25 -25 25 -20 0 -25 5 -25 25 0 20 -5 25 -25 25 -23 0 -25 3 -25
50 0 47 -2 50 -25 50 -20 0 -25 5 -25 25 0 20 5 25 25 25 23 0 25 3 25 50 0
47 2 50 25 50 20 0 25 5 25 25 l0 25 125 0 125 0 0 -25z m-1750 -1800 c0 -20
5 -25 25 -25 20 0 25 -5 25 -25 0 -20 -5 -25 -25 -25 -20 0 -25 5 -25 25 0 20
-5 25 -25 25 -20 0 -25 5 -25 25 0 20 5 25 25 25 20 0 25 -5 25 -25z m200
-150 c0 -20 -5 -25 -25 -25 -20 0 -25 5 -25 25 0 20 5 25 25 25 20 0 25 -5 25
-25z m50 -100 c0 -20 -5 -25 -25 -25 -20 0 -25 5 -25 25 0 20 5 25 25 25 20 0
25 -5 25 -25z m200 -100 c0 -20 -5 -25 -25 -25 -20 0 -25 5 -25 25 0 20 5 25
25 25 20 0 25 -5 25 -25z m100 -50 c0 -20 -5 -25 -25 -25 -20 0 -25 5 -25 25
0 20 5 25 25 25 20 0 25 -5 25 -25z m7650 -150 c0 -20 -5 -25 -25 -25 -20 0
-25 5 -25 25 0 20 5 25 25 25 20 0 25 -5 25 -25z m-300 -50 l0 -25 -100 0
-100 0 0 25 0 25 100 0 100 0 0 -25z m1650 -775 c0 -47 -2 -50 -25 -50 -23 0
-25 3 -25 50 0 47 2 50 25 50 23 0 25 -3 25 -50z"/>
<path d="M5690 14065 c0 -23 -3 -25 -50 -25 -47 0 -50 -2 -50 -25 0 -24 -2
-25 -75 -25 -73 0 -75 -1 -75 -25 0 -24 -2 -25 -75 -25 -73 0 -75 -1 -75 -25
0 -23 -3 -25 -50 -25 -47 0 -50 -2 -50 -25 0 -23 -3 -25 -50 -25 -47 0 -50 -2
-50 -25 0 -20 -5 -25 -25 -25 -20 0 -25 -5 -25 -25 0 -20 -5 -25 -25 -25 -20
0 -25 -5 -25 -25 0 -20 -5 -25 -25 -25 -20 0 -25 -5 -25 -25 0 -23 -3 -25 -50
-25 l-50 0 0 -50 c0 -47 -2 -50 -25 -50 -20 0 -25 -5 -25 -25 0 -20 -5 -25
-25 -25 -23 0 -25 -3 -25 -50 0 -47 -2 -50 -25 -50 -20 0 -25 -5 -25 -25 0
-20 -5 -25 -25 -25 -23 0 -25 -3 -25 -50 0 -47 -2 -50 -25 -50 -24 0 -25 -2
-25 -75 0 -73 -1 -75 -25 -75 l-25 0 0 -100 0 -100 -25 0 -25 0 0 -125 0 -125
75 0 c73 0 75 1 75 25 0 20 5 25 25 25 20 0 25 5 25 25 0 20 5 25 25 25 20 0
25 5 25 25 0 20 5 25 25 25 20 0 25 5 25 25 0 20 5 25 25 25 20 0 25 5 25 25
0 20 5 25 25 25 20 0 25 5 25 25 0 20 5 25 25 25 20 0 25 5 25 25 0 20 5 25
25 25 20 0 25 5 25 25 0 20 5 25 25 25 20 0 25 5 25 25 0 24 2 25 75 25 73 0
75 1 75 25 0 20 5 25 25 25 20 0 25 5 25 25 0 23 3 25 50 25 47 0 50 2 50 25
0 20 5 25 25 25 20 0 25 5 25 25 0 24 2 25 75 25 73 0 75 1 75 25 l0 25 100 0
100 0 0 25 0 25 100 0 100 0 0 25 0 25 425 0 425 0 0 -25 0 -25 125 0 125 0 0
-25 0 -25 150 0 150 0 0 100 0 100 -25 0 c-23 0 -25 3 -25 50 0 47 -2 50 -25
50 -20 0 -25 5 -25 25 0 20 -5 25 -25 25 -20 0 -25 5 -25 25 0 20 -5 25 -25
25 -20 0 -25 5 -25 25 0 20 -5 25 -25 25 -20 0 -25 5 -25 25 0 20 -5 25 -25
25 -20 0 -25 5 -25 25 0 23 -3 25 -50 25 -47 0 -50 2 -50 25 0 24 -2 25 -75
25 -73 0 -75 1 -75 25 0 24 -2 25 -75 25 -73 0 -75 1 -75 25 0 24 -2 25 -75
25 -73 0 -75 1 -75 25 l0 25 -400 0 -400 0 0 -25z"/>
<path d="M11140 14065 l0 -25 -100 0 -100 0 0 -25 c0 -24 -2 -25 -75 -25 -73
0 -75 -1 -75 -25 0 -24 -2 -25 -75 -25 -73 0 -75 -1 -75 -25 0 -23 -3 -25 -50
-25 -47 0 -50 -2 -50 -25 0 -23 -3 -25 -50 -25 -47 0 -50 -2 -50 -25 0 -20 -5
-25 -25 -25 -23 0 -25 -3 -25 -50 0 -47 -2 -50 -25 -50 -20 0 -25 -5 -25 -25
0 -20 -5 -25 -25 -25 -20 0 -25 -5 -25 -25 0 -23 -3 -25 -50 -25 l-50 0 0
-125 0 -125 150 0 150 0 0 25 0 25 150 0 150 0 0 25 0 25 425 0 425 0 0 -25 0
-25 100 0 100 0 0 -25 0 -25 125 0 125 0 0 -25 c0 -23 3 -25 50 -25 47 0 50
-2 50 -25 0 -24 2 -25 75 -25 73 0 75 -1 75 -25 0 -20 5 -25 25 -25 20 0 25
-5 25 -25 0 -23 3 -25 50 -25 47 0 50 -2 50 -25 0 -23 3 -25 50 -25 47 0 50
-2 50 -25 0 -20 5 -25 25 -25 20 0 25 -5 25 -25 0 -23 3 -25 50 -25 47 0 50
-2 50 -25 0 -20 5 -25 25 -25 20 0 25 -5 25 -25 0 -20 5 -25 25 -25 20 0 25
-5 25 -25 0 -20 5 -25 25 -25 20 0 25 -5 25 -25 0 -20 5 -25 25 -25 20 0 25
-5 25 -25 0 -20 5 -25 25 -25 20 0 25 -5 25 -25 0 -20 5 -25 25 -25 20 0 25
-5 25 -25 0 -23 3 -25 50 -25 47 0 50 -2 50 -25 0 -20 5 -25 25 -25 l25 0 0
225 0 225 -25 0 c-24 0 -25 2 -25 75 0 73 -1 75 -25 75 -23 0 -25 3 -25 50 0
47 -2 50 -25 50 -20 0 -25 5 -25 25 0 20 -5 25 -25 25 -20 0 -25 5 -25 25 0
20 -5 25 -25 25 -23 0 -25 3 -25 50 0 47 -2 50 -25 50 -20 0 -25 5 -25 25 0
20 -5 25 -25 25 -20 0 -25 5 -25 25 0 20 -5 25 -25 25 -20 0 -25 5 -25 25 0
20 -5 25 -25 25 -20 0 -25 5 -25 25 0 23 -3 25 -50 25 -47 0 -50 2 -50 25 0
20 -5 25 -25 25 -20 0 -25 5 -25 25 0 20 -5 25 -25 25 -20 0 -25 5 -25 25 0
23 -3 25 -50 25 -47 0 -50 2 -50 25 0 23 -3 25 -50 25 -47 0 -50 2 -50 25 0
24 -2 25 -75 25 -73 0 -75 1 -75 25 0 24 -2 25 -75 25 -73 0 -75 1 -75 25 0
24 -2 25 -75 25 -73 0 -75 1 -75 25 l0 25 -375 0 -375 0 0 -25z"/>
<path d="M11490 11665 l0 -25 -200 0 -200 0 0 -25 c0 -24 -2 -25 -75 -25 -73
0 -75 -1 -75 -25 0 -24 -2 -25 -75 -25 -73 0 -75 -1 -75 -25 0 -20 -5 -25 -25
-25 -20 0 -25 -5 -25 -25 0 -20 -5 -25 -25 -25 -20 0 -25 -5 -25 -25 0 -20 -5
-25 -25 -25 -20 0 -25 -5 -25 -25 0 -23 -3 -25 -50 -25 -47 0 -50 -2 -50 -25
0 -20 -5 -25 -25 -25 -20 0 -25 -5 -25 -25 0 -20 -5 -25 -25 -25 -20 0 -25 -5
-25 -25 0 -20 -5 -25 -25 -25 -23 0 -25 -3 -25 -50 0 -47 -2 -50 -25 -50 -20
0 -25 -5 -25 -25 0 -20 -5 -25 -25 -25 -20 0 -25 -5 -25 -25 0 -20 -5 -25 -25
-25 -20 0 -25 -5 -25 -25 0 -20 -5 -25 -25 -25 -23 0 -25 -3 -25 -50 0 -47 -2
-50 -25 -50 -23 0 -25 -3 -25 -50 0 -47 -2 -50 -25 -50 l-25 0 0 -100 0 -100
-25 0 c-24 0 -25 -2 -25 -75 0 -73 1 -75 25 -75 23 0 25 3 25 50 0 47 2 50 25
50 23 0 25 3 25 50 0 47 2 50 25 50 20 0 25 5 25 25 0 20 5 25 25 25 20 0 25
5 25 25 0 20 5 25 25 25 20 0 25 5 25 25 0 20 5 25 25 25 23 0 25 3 25 50 0
47 2 50 25 50 20 0 25 5 25 25 0 20 5 25 25 25 20 0 25 5 25 25 0 23 3 25 50
25 l50 0 0 -200 0 -200 25 0 c24 0 25 -2 25 -75 0 -73 1 -75 25 -75 23 0 25
-3 25 -50 0 -47 2 -50 25 -50 23 0 25 -3 25 -50 l0 -50 150 0 150 0 0 25 0 25
125 0 125 0 0 25 0 25 150 0 150 0 0 25 0 25 175 0 175 0 0 25 c0 24 2 25 75
25 73 0 75 1 75 25 l0 25 125 0 125 0 0 25 c0 20 5 25 25 25 l25 0 0 250 0
250 -25 0 c-24 0 -25 2 -25 75 0 73 -1 75 -25 75 -20 0 -25 5 -25 25 l0 25
100 0 100 0 0 -25 c0 -23 3 -25 50 -25 47 0 50 -2 50 -25 0 -20 5 -25 25 -25
20 0 25 -5 25 -25 0 -23 3 -25 50 -25 l50 0 0 -50 0 -50 50 0 c47 0 50 -2 50
-25 0 -20 5 -25 25 -25 20 0 25 -5 25 -25 0 -20 5 -25 25 -25 23 0 25 -3 25
-50 0 -47 2 -50 25 -50 23 0 25 -3 25 -50 0 -47 2 -50 25 -50 20 0 25 5 25 25
0 20 5 25 25 25 24 0 25 2 25 75 l0 75 50 0 c47 0 50 2 50 25 0 20 -5 25 -25
25 -23 0 -25 3 -25 50 0 47 -2 50 -25 50 -20 0 -25 5 -25 25 0 20 -5 25 -25
25 -20 0 -25 5 -25 25 0 20 -5 25 -25 25 -20 0 -25 5 -25 25 0 20 -5 25 -25
25 -20 0 -25 5 -25 25 0 20 -5 25 -25 25 -20 0 -25 5 -25 25 0 20 -5 25 -25
25 -20 0 -25 5 -25 25 0 23 -3 25 -50 25 -47 0 -50 2 -50 25 0 20 -5 25 -25
25 -20 0 -25 5 -25 25 0 23 -3 25 -50 25 -47 0 -50 2 -50 25 0 24 -2 25 -75
25 -73 0 -75 1 -75 25 0 20 -5 25 -25 25 -20 0 -25 5 -25 25 0 24 -2 25 -75
25 -73 0 -75 1 -75 25 l0 25 -100 0 -100 0 0 25 0 25 -200 0 -200 0 0 25 c0
23 -3 25 -50 25 -47 0 -50 -2 -50 -25z m-300 -400 c0 -20 5 -25 25 -25 23 0
25 -3 25 -50 0 -47 2 -50 25 -50 20 0 25 -5 25 -25 0 -20 -5 -25 -25 -25 -24
0 -25 -2 -25 -75 0 -73 -1 -75 -25 -75 -20 0 -25 -5 -25 -25 l0 -25 -125 0
-125 0 0 50 c0 47 -2 50 -25 50 l-25 0 0 100 0 100 25 0 c23 0 25 3 25 50 l0
50 125 0 125 0 0 -25z"/>
<path d="M10040 11090 c0 -47 -2 -50 -25 -50 -20 0 -25 5 -25 25 0 20 -5 25
-25 25 l-25 0 0 -150 0 -150 25 0 c23 0 25 3 25 50 0 47 2 50 25 50 20 0 25 5
25 25 0 20 5 25 25 25 l25 0 0 100 0 100 -25 0 c-23 0 -25 -3 -25 -50z"/>
<path d="M16590 8615 c0 -20 -5 -25 -25 -25 -20 0 -25 -5 -25 -25 0 -20 -5
-25 -25 -25 -23 0 -25 -3 -25 -50 0 -47 -2 -50 -25 -50 -20 0 -25 -5 -25 -25
0 -20 -5 -25 -25 -25 -23 0 -25 -3 -25 -50 0 -47 -2 -50 -25 -50 -20 0 -25 -5
-25 -25 0 -20 -5 -25 -25 -25 -24 0 -25 -2 -25 -75 0 -73 -1 -75 -25 -75 -20
0 -25 -5 -25 -25 0 -20 -5 -25 -25 -25 -20 0 -25 -5 -25 -25 0 -20 -5 -25 -25
-25 -20 0 -25 -5 -25 -25 0 -20 -5 -25 -25 -25 -24 0 -25 -2 -25 -75 0 -73 -1
-75 -25 -75 -23 0 -25 -3 -25 -50 0 -47 -2 -50 -25 -50 -23 0 -25 -3 -25 -50
0 -47 -2 -50 -25 -50 -23 0 -25 -3 -25 -50 0 -47 -2 -50 -25 -50 -20 0 -25 -5
-25 -25 0 -20 -5 -25 -25 -25 -20 0 -25 -5 -25 -25 0 -20 -5 -25 -25 -25 -20
0 -25 -5 -25 -25 0 -20 -5 -25 -25 -25 -23 0 -25 -3 -25 -50 0 -47 -2 -50 -25
-50 -20 0 -25 -5 -25 -25 0 -20 -5 -25 -25 -25 -20 0 -25 -5 -25 -25 0 -20 -5
-25 -25 -25 -20 0 -25 -5 -25 -25 0 -20 -5 -25 -25 -25 -20 0 -25 -5 -25 -25
0 -20 -5 -25 -25 -25 -20 0 -25 -5 -25 -25 0 -20 -5 -25 -25 -25 -20 0 -25 -5
-25 -25 0 -20 -5 -25 -25 -25 l-25 0 0 -125 0 -125 -25 0 c-20 0 -25 -5 -25
-25 0 -20 -5 -25 -25 -25 -20 0 -25 -5 -25 -25 0 -20 -5 -25 -25 -25 -23 0
-25 -3 -25 -50 0 -47 -2 -50 -25 -50 -23 0 -25 -3 -25 -50 0 -47 -2 -50 -25
-50 -20 0 -25 -5 -25 -25 0 -20 -5 -25 -25 -25 -23 0 -25 -3 -25 -50 0 -47 -2
-50 -25 -50 -23 0 -25 -3 -25 -50 0 -47 -2 -50 -25 -50 -20 0 -25 -5 -25 -25
0 -20 -5 -25 -25 -25 -23 0 -25 -3 -25 -50 0 -47 -2 -50 -25 -50 -20 0 -25 -5
-25 -25 0 -20 -5 -25 -25 -25 -23 0 -25 -3 -25 -50 0 -47 -2 -50 -25 -50 -24
0 -25 -2 -25 -75 0 -73 -1 -75 -25 -75 -20 0 -25 -5 -25 -25 0 -20 -5 -25 -25
-25 l-25 0 0 -175 0 -175 50 0 50 0 0 75 c0 73 1 75 25 75 24 0 25 2 25 75 0
73 1 75 25 75 24 0 25 2 25 75 0 73 1 75 25 75 23 0 25 3 25 50 0 47 2 50 25
50 23 0 25 3 25 50 0 47 2 50 25 50 20 0 25 5 25 25 0 20 5 25 25 25 23 0 25
3 25 50 0 47 2 50 25 50 20 0 25 5 25 25 0 20 5 25 25 25 23 0 25 3 25 50 0
47 2 50 25 50 24 0 25 2 25 75 0 73 1 75 25 75 23 0 25 3 25 50 0 47 2 50 25
50 20 0 25 5 25 25 0 20 5 25 25 25 23 0 25 3 25 50 0 47 2 50 25 50 20 0 25
5 25 25 0 20 5 25 25 25 24 0 25 2 25 75 0 73 1 75 25 75 20 0 25 5 25 25 0
23 3 25 50 25 l50 0 0 50 c0 47 2 50 25 50 23 0 25 3 25 50 0 47 2 50 25 50
20 0 25 5 25 25 0 20 5 25 25 25 23 0 25 3 25 50 0 47 2 50 25 50 20 0 25 5
25 25 0 20 5 25 25 25 20 0 25 5 25 25 0 20 5 25 25 25 23 0 25 3 25 50 0 47
2 50 25 50 20 0 25 5 25 25 0 20 5 25 25 25 24 0 25 2 25 75 0 73 1 75 25 75
23 0 25 3 25 50 l0 50 50 0 c47 0 50 2 50 25 0 20 5 25 25 25 24 0 25 2 25 75
0 73 1 75 25 75 23 0 25 3 25 50 0 47 2 50 25 50 20 0 25 5 25 25 0 20 5 25
25 25 24 0 25 2 25 75 l0 75 50 0 50 0 0 50 c0 47 2 50 25 50 20 0 25 5 25 25
0 20 5 25 25 25 24 0 25 2 25 75 0 73 1 75 25 75 23 0 25 3 25 50 0 47 -2 50
-25 50 -20 0 -25 -5 -25 -25z"/>
<path d="M7840 8515 c0 -73 -1 -75 -25 -75 -23 0 -25 -3 -25 -50 0 -47 2 -50
25 -50 l25 0 0 -125 0 -125 25 0 c23 0 25 -3 25 -50 0 -47 2 -50 25 -50 20 0
25 -5 25 -25 0 -20 5 -25 25 -25 20 0 25 -5 25 -25 0 -20 5 -25 25 -25 23 0
25 -3 25 -50 l0 -50 -150 0 -150 0 0 25 0 25 -125 0 -125 0 0 25 0 25 -100 0
-100 0 0 25 0 25 -125 0 -125 0 0 25 0 25 -475 0 -475 0 0 -25 0 -25 -100 0
-100 0 0 -25 c0 -23 -3 -25 -50 -25 -47 0 -50 -2 -50 -25 0 -23 -3 -25 -50
-25 -47 0 -50 -2 -50 -25 0 -20 -5 -25 -25 -25 -20 0 -25 -5 -25 -25 0 -20 -5
-25 -25 -25 l-25 0 0 -100 0 -100 -25 0 c-20 0 -25 -5 -25 -25 0 -20 5 -25 25
-25 23 0 25 -3 25 -50 l0 -50 50 0 c47 0 50 -2 50 -25 0 -20 5 -25 25 -25 20
0 25 -5 25 -25 l0 -25 100 0 100 0 0 -50 0 -50 100 0 100 0 0 25 c0 24 2 25
75 25 73 0 75 -1 75 -25 0 -20 5 -25 25 -25 20 0 25 -5 25 -25 0 -20 5 -25 25
-25 20 0 25 -5 25 -25 0 -20 5 -25 25 -25 23 0 25 -3 25 -50 0 -47 2 -50 25
-50 20 0 25 -5 25 -25 0 -20 5 -25 25 -25 20 0 25 -5 25 -25 0 -20 5 -25 25
-25 20 0 25 -5 25 -25 0 -23 3 -25 50 -25 47 0 50 -2 50 -25 0 -20 5 -25 25
-25 23 0 25 -3 25 -50 0 -47 2 -50 25 -50 20 0 25 -5 25 -25 0 -23 3 -25 50
-25 47 0 50 -2 50 -25 0 -23 3 -25 50 -25 47 0 50 -2 50 -25 0 -20 5 -25 25
-25 20 0 25 -5 25 -25 l0 -25 100 0 100 0 0 -25 c0 -20 5 -25 25 -25 23 0 25
3 25 50 0 47 2 50 25 50 20 0 25 5 25 25 l0 25 225 0 225 0 0 50 0 50 50 0
c47 0 50 -2 50 -25 l0 -25 150 0 150 0 0 -25 0 -25 -175 0 -175 0 0 -25 0 -25
300 0 300 0 0 -25 0 -25 125 0 125 0 0 -25 0 -25 250 0 250 0 0 25 0 25 225 0
225 0 0 25 0 25 250 0 250 0 0 -25 c0 -24 2 -25 75 -25 73 0 75 -1 75 -25 0
-23 3 -25 50 -25 47 0 50 -2 50 -25 0 -20 5 -25 25 -25 20 0 25 5 25 25 0 24
2 25 75 25 73 0 75 1 75 25 0 20 5 25 25 25 20 0 25 5 25 25 0 20 5 25 25 25
20 0 25 5 25 25 0 24 2 25 75 25 73 0 75 1 75 25 0 20 5 25 25 25 20 0 25 5
25 25 0 23 3 25 50 25 47 0 50 2 50 25 0 20 5 25 25 25 20 0 25 5 25 25 0 20
5 25 25 25 20 0 25 5 25 25 0 20 5 25 25 25 20 0 25 5 25 25 0 20 5 25 25 25
20 0 25 5 25 25 0 20 5 25 25 25 20 0 25 5 25 25 0 20 5 25 25 25 20 0 25 5
25 25 0 20 5 25 25 25 20 0 25 5 25 25 0 20 5 25 25 25 20 0 25 5 25 25 0 20
5 25 25 25 20 0 25 5 25 25 0 23 3 25 50 25 47 0 50 2 50 25 0 20 5 25 25 25
20 0 25 -5 25 -25 l0 -25 100 0 100 0 0 25 c0 23 3 25 50 25 47 0 50 2 50 25
0 20 5 25 25 25 20 0 25 5 25 25 0 20 5 25 25 25 20 0 25 5 25 25 0 20 5 25
25 25 20 0 25 5 25 25 0 20 5 25 25 25 20 0 25 5 25 25 0 20 5 25 25 25 23 0
25 3 25 50 0 47 -2 50 -25 50 -24 0 -25 2 -25 75 0 73 -1 75 -25 75 -20 0 -25
5 -25 25 0 20 -5 25 -25 25 -20 0 -25 5 -25 25 0 20 -5 25 -25 25 -20 0 -25 5
-25 25 0 20 -5 25 -25 25 -20 0 -25 5 -25 25 0 24 -2 25 -75 25 -73 0 -75 1
-75 25 l0 25 -575 0 -575 0 0 -25 0 -25 -200 0 -200 0 0 -25 c0 -23 -3 -25
-50 -25 -47 0 -50 -2 -50 -25 l0 -25 -125 0 -125 0 0 -25 0 -25 -175 0 -175 0
0 50 c0 47 2 50 25 50 20 0 25 5 25 25 0 20 5 25 25 25 23 0 25 3 25 50 0 47
2 50 25 50 23 0 25 3 25 50 0 47 2 50 25 50 24 0 25 2 25 75 0 73 1 75 25 75
23 0 25 3 25 50 0 47 -2 50 -25 50 -23 0 -25 3 -25 50 0 47 -2 50 -25 50 -20
0 -25 5 -25 25 0 20 -5 25 -25 25 -23 0 -25 -3 -25 -50 0 -47 -2 -50 -25 -50
-23 0 -25 -3 -25 -50 0 -47 -2 -50 -25 -50 -23 0 -25 -3 -25 -50 0 -47 -2 -50
-25 -50 -20 0 -25 -5 -25 -25 0 -20 -5 -25 -25 -25 -20 0 -25 -5 -25 -25 0
-20 -5 -25 -25 -25 -20 0 -25 -5 -25 -25 0 -23 -3 -25 -50 -25 -47 0 -50 -2
-50 -25 0 -24 -2 -25 -75 -25 -73 0 -75 -1 -75 -25 l0 -25 -150 0 -150 0 0
-25 c0 -24 -2 -25 -75 -25 -73 0 -75 1 -75 25 l0 25 -150 0 -150 0 0 25 c0 24
-2 25 -75 25 -73 0 -75 1 -75 25 0 20 -5 25 -25 25 -20 0 -25 5 -25 25 0 20
-5 25 -25 25 -20 0 -25 5 -25 25 0 20 -5 25 -25 25 -20 0 -25 5 -25 25 0 20
-5 25 -25 25 -20 0 -25 5 -25 25 0 20 -5 25 -25 25 -23 0 -25 3 -25 50 0 47
-2 50 -25 50 l-25 0 0 100 0 100 -25 0 c-24 0 -25 -2 -25 -75z m300 -750 c0
-20 -5 -25 -25 -25 -20 0 -25 5 -25 25 0 20 5 25 25 25 20 0 25 -5 25 -25z"/>
<path d="M10240 6365 c0 -20 5 -25 25 -25 20 0 25 5 25 25 0 20 -5 25 -25 25
-20 0 -25 -5 -25 -25z"/>
<path d="M8040 6115 l0 -25 150 0 150 0 0 -25 0 -25 500 0 500 0 0 25 0 25
150 0 150 0 0 25 0 25 -800 0 -800 0 0 -25z"/>
<path d="M9890 5815 c0 -20 5 -25 25 -25 20 0 25 5 25 25 0 20 -5 25 -25 25
-20 0 -25 -5 -25 -25z"/>
<path d="M7840 5765 c0 -20 5 -25 25 -25 20 0 25 5 25 25 0 20 -5 25 -25 25
-20 0 -25 -5 -25 -25z"/>
<path d="M9740 5765 c0 -23 3 -25 50 -25 47 0 50 2 50 25 0 23 -3 25 -50 25
-47 0 -50 -2 -50 -25z"/>
<path d="M9590 5715 c0 -20 5 -25 25 -25 20 0 25 5 25 25 0 20 -5 25 -25 25
-20 0 -25 -5 -25 -25z"/>
<path d="M16490 5515 c0 -20 5 -25 25 -25 20 0 25 5 25 25 0 20 -5 25 -25 25
-20 0 -25 -5 -25 -25z"/>
<path d="M16390 5315 c0 -20 5 -25 25 -25 20 0 25 5 25 25 0 20 -5 25 -25 25
-20 0 -25 -5 -25 -25z"/>
<path d="M14640 5140 l0 -100 -25 0 c-24 0 -25 -2 -25 -75 0 -73 -1 -75 -25
-75 -20 0 -25 -5 -25 -25 0 -23 3 -25 50 -25 l50 0 0 50 c0 47 2 50 25 50 l25
0 0 125 0 125 25 0 c20 0 25 5 25 25 0 23 -3 25 -50 25 l-50 0 0 -100z"/>
<path d="M16340 5165 c0 -73 -1 -75 -25 -75 -24 0 -25 -2 -25 -75 0 -73 -1
-75 -25 -75 -20 0 -25 -5 -25 -25 0 -20 5 -25 25 -25 20 0 25 5 25 25 0 20 5
25 25 25 24 0 25 2 25 75 0 73 1 75 25 75 24 0 25 2 25 75 0 73 -1 75 -25 75
-24 0 -25 -2 -25 -75z"/>
<path d="M16190 4790 c0 -47 2 -50 25 -50 20 0 25 5 25 25 0 20 5 25 25 25 20
0 25 5 25 25 0 23 -3 25 -50 25 l-50 0 0 -50z"/>
<path d="M16090 4665 c0 -20 -5 -25 -25 -25 -20 0 -25 -5 -25 -25 0 -20 -5
-25 -25 -25 -20 0 -25 -5 -25 -25 0 -20 -5 -25 -25 -25 -20 0 -25 -5 -25 -25
0 -20 -5 -25 -25 -25 -20 0 -25 -5 -25 -25 0 -20 -5 -25 -25 -25 -20 0 -25 -5
-25 -25 0 -23 -3 -25 -50 -25 -47 0 -50 -2 -50 -25 0 -20 -5 -25 -25 -25 -20
0 -25 -5 -25 -25 0 -20 -5 -25 -25 -25 -24 0 -25 -2 -25 -75 0 -73 -1 -75 -25
-75 -20 0 -25 -5 -25 -25 0 -20 -5 -25 -25 -25 -23 0 -25 -3 -25 -50 0 -47 -2
-50 -25 -50 -20 0 -25 -5 -25 -25 0 -20 -5 -25 -25 -25 -23 0 -25 -3 -25 -50
0 -47 -2 -50 -25 -50 -20 0 -25 -5 -25 -25 0 -23 -3 -25 -50 -25 -47 0 -50 -2
-50 -25 0 -20 -5 -25 -25 -25 -20 0 -25 -5 -25 -25 0 -23 -3 -25 -50 -25 -47
0 -50 -2 -50 -25 0 -23 -3 -25 -50 -25 -47 0 -50 -2 -50 -25 l0 -25 -125 0
-125 0 0 -25 0 -25 -100 0 -100 0 0 25 0 25 -150 0 -150 0 0 25 c0 23 -3 25
-50 25 -47 0 -50 2 -50 25 0 23 -3 25 -50 25 -47 0 -50 2 -50 25 0 23 -3 25
-50 25 -47 0 -50 2 -50 25 0 23 -3 25 -50 25 -47 0 -50 2 -50 25 0 23 -3 25
-50 25 -47 0 -50 2 -50 25 0 23 -3 25 -50 25 -47 0 -50 2 -50 25 l0 25 -225 0
-225 0 0 -25 c0 -23 -3 -25 -50 -25 -47 0 -50 -2 -50 -25 l0 -25 -100 0 -100
0 0 -25 c0 -23 -3 -25 -50 -25 -47 0 -50 -2 -50 -25 0 -23 -3 -25 -50 -25 -47
0 -50 -2 -50 -25 0 -20 -5 -25 -25 -25 -20 0 -25 -5 -25 -25 0 -20 -5 -25 -25
-25 -20 0 -25 -5 -25 -25 0 -23 -3 -25 -50 -25 -47 0 -50 -2 -50 -25 0 -23 -3
-25 -50 -25 -47 0 -50 -2 -50 -25 0 -23 -3 -25 -50 -25 l-50 0 0 -100 0 -100
25 0 c23 0 25 -3 25 -50 0 -47 2 -50 25 -50 l25 0 0 -125 0 -125 50 0 c47 0
50 2 50 25 0 20 5 25 25 25 20 0 25 5 25 25 0 20 5 25 25 25 23 0 25 3 25 50
0 47 2 50 25 50 23 0 25 3 25 50 0 47 2 50 25 50 20 0 25 5 25 25 0 20 5 25
25 25 23 0 25 3 25 50 0 47 2 50 25 50 23 0 25 3 25 50 l0 50 50 0 c47 0 50 2
50 25 0 20 5 25 25 25 20 0 25 5 25 25 0 23 3 25 50 25 47 0 50 2 50 25 0 24
2 25 75 25 73 0 75 1 75 25 l0 25 125 0 125 0 0 25 c0 24 2 25 75 25 73 0 75
-1 75 -25 0 -23 3 -25 50 -25 47 0 50 -2 50 -25 0 -20 5 -25 25 -25 20 0 25
-5 25 -25 0 -23 3 -25 50 -25 47 0 50 -2 50 -25 0 -23 3 -25 50 -25 47 0 50
-2 50 -25 0 -24 2 -25 75 -25 73 0 75 -1 75 -25 l0 -25 100 0 100 0 0 -25 c0
-24 2 -25 75 -25 73 0 75 -1 75 -25 0 -20 5 -25 25 -25 20 0 25 5 25 25 l0 25
200 0 200 0 0 25 c0 24 2 25 75 25 73 0 75 1 75 25 0 23 3 25 50 25 47 0 50 2
50 25 0 20 5 25 25 25 20 0 25 5 25 25 0 20 5 25 25 25 20 0 25 5 25 25 0 23
3 25 50 25 l50 0 0 50 c0 47 2 50 25 50 20 0 25 5 25 25 0 23 3 25 50 25 47 0
50 2 50 25 0 23 3 25 50 25 47 0 50 2 50 25 0 20 5 25 25 25 20 0 25 5 25 25
0 20 5 25 25 25 23 0 25 3 25 50 0 47 2 50 25 50 20 0 25 -5 25 -25 0 -20 5
-25 25 -25 20 0 25 -5 25 -25 0 -20 5 -25 25 -25 23 0 25 -3 25 -50 0 -47 2
-50 25 -50 20 0 25 -5 25 -25 0 -20 5 -25 25 -25 23 0 25 -3 25 -50 0 -47 2
-50 25 -50 20 0 25 -5 25 -25 0 -20 5 -25 25 -25 20 0 25 -5 25 -25 0 -24 2
-25 75 -25 l75 0 0 -50 c0 -47 2 -50 25 -50 20 0 25 5 25 25 0 20 5 25 25 25
20 0 25 -5 25 -25 0 -23 3 -25 50 -25 47 0 50 -2 50 -25 l0 -25 250 0 250 0 0
-25 c0 -20 5 -25 25 -25 23 0 25 3 25 50 0 47 2 50 25 50 20 0 25 5 25 25 0
20 5 25 25 25 20 0 25 5 25 25 0 23 3 25 50 25 l50 0 0 50 c0 47 2 50 25 50
20 0 25 5 25 25 0 23 3 25 50 25 l50 0 0 50 c0 47 2 50 25 50 20 0 25 5 25 25
0 20 -5 25 -25 25 -20 0 -25 -5 -25 -25 0 -23 -3 -25 -50 -25 -47 0 -50 -2
-50 -25 0 -23 -3 -25 -50 -25 -47 0 -50 -2 -50 -25 l0 -25 -250 0 -250 0 0 25
0 25 -100 0 -100 0 0 25 c0 23 -3 25 -50 25 -47 0 -50 2 -50 25 0 20 -5 25
-25 25 -20 0 -25 5 -25 25 0 20 -5 25 -25 25 -20 0 -25 5 -25 25 0 20 -5 25
-25 25 -20 0 -25 5 -25 25 0 20 -5 25 -25 25 -23 0 -25 3 -25 50 0 47 -2 50
-25 50 -24 0 -25 2 -25 75 0 73 -1 75 -25 75 -24 0 -25 2 -25 75 0 73 1 75 25
75 23 0 25 3 25 50 0 47 2 50 25 50 23 0 25 3 25 50 0 47 2 50 25 50 20 0 25
5 25 25 0 23 -3 25 -50 25 -47 0 -50 -2 -50 -25z"/>
<path d="M16890 3290 c0 -47 -2 -50 -25 -50 -23 0 -25 -3 -25 -50 0 -47 -2
-50 -25 -50 -24 0 -25 -2 -25 -75 0 -73 -1 -75 -25 -75 -23 0 -25 -3 -25 -50
0 -47 -2 -50 -25 -50 -23 0 -25 -3 -25 -50 0 -47 2 -50 25 -50 20 0 25 5 25
25 0 20 5 25 25 25 23 0 25 3 25 50 0 47 2 50 25 50 l25 0 0 100 0 100 25 0
c23 0 25 3 25 50 0 47 2 50 25 50 23 0 25 3 25 50 0 47 -2 50 -25 50 -23 0
-25 -3 -25 -50z"/>
<path d="M16640 2690 c0 -47 2 -50 25 -50 23 0 25 3 25 50 0 47 -2 50 -25 50
-23 0 -25 -3 -25 -50z"/>
<path d="M16590 2540 c0 -47 2 -50 25 -50 23 0 25 3 25 50 0 47 -2 50 -25 50
-23 0 -25 -3 -25 -50z"/>
</g>
</svg>
